SplineFontDB: 3.0
FontName: Besley-it-Medium
FullName: Besley* Medium
FamilyName: Besley* Medium
Weight: Medium
Copyright: Copyright (c) 2017, Owen Earl,,, (EwonRael@yahoo.com)
Version: 001.000
ItalicAngle: 0
UnderlinePosition: -100
UnderlineWidth: 50
Ascent: 800
Descent: 200
InvalidEm: 0
LayerCount: 2
Layer: 0 0 "Back" 1
Layer: 1 0 "Fore" 0
XUID: [1021 31 -699969567 16487490]
FSType: 0
OS2Version: 0
OS2_WeightWidthSlopeOnly: 0
OS2_UseTypoMetrics: 1
CreationTime: 1460762150
ModificationTime: 1495818581
PfmFamily: 17
TTFWeight: 500
TTFWidth: 5
LineGap: 90
VLineGap: 0
OS2TypoAscent: 800
OS2TypoAOffset: 0
OS2TypoDescent: -200
OS2TypoDOffset: 0
OS2TypoLinegap: 90
OS2WinAscent: 1310
OS2WinAOffset: 0
OS2WinDescent: 830
OS2WinDOffset: 0
HheadAscent: 1310
HheadAOffset: 0
HheadDescent: -830
HheadDOffset: 0
OS2CapHeight: 750
OS2XHeight: 520
OS2FamilyClass: 1024
OS2Vendor: 'PfEd'
OS2UnicodeRanges: 00000001.00000000.00000000.00000000
Lookup: 5 0 0 "'calt' Contextual Alternates lookup 1" { "'calt' Contextual Alternates lookup 1-1"  } ['calt' ('DFLT' <'dflt' > 'grek' <'dflt' > 'latn' <'dflt' > ) ]
Lookup: 1 0 0 "'ss01' Style Set 1 lookup 2" { "'ss01' Style Set 1 lookup 2-1"  } ['ss01' ('DFLT' <'dflt' > 'grek' <'dflt' > 'latn' <'dflt' > ) ]
Lookup: 4 0 1 "'liga' Standard Ligatures lookup 0" { "Not your mama's contextual ligatures"  } ['liga' ('DFLT' <'dflt' > 'grek' <'dflt' > 'latn' <'dflt' > ) ]
Lookup: 258 0 0 "Kern like there's no tomorrow" { "Get it right" [150,0,5] } ['kern' ('DFLT' <'dflt' > 'grek' <'dflt' > 'latn' <'dflt' > ) ]
MarkAttachClasses: 1
DEI: 91125
KernClass2: 18 15 "Get it right"
 3 A L
 7 D G O Q
 5 F P Y
 3 K X
 1 T
 5 U J C
 3 V W
 3 u z
 9 b c e o p
 5 h n m
 3 k x
 11 r y v w g q
 6 period
 1 a
 27 H M I N l d uniFB02 uniFB04
 1 R
 68 quotedbl quotesingle quoteleft quoteright quotedblleft quotedblright
 3 A J
 7 C G O Q
 1 T
 5 V W Y
 1 X
 11 a m n r z s
 11 d e g o q c
 1 u
 5 v w y
 1 x
 12 period comma
 5 t p j
 37 B D E F H I K M N P R b h k l uniFFFD

StartChar: ampersand
Encoding: 38 38 0
Width: 870
Flags: HMW
LayerCount: 2
Fore
SplineSet
705 405 m 1
 675 192 503 -15 270 -15 c 4
 127 -15 1 57 1 200 c 1
 151 220 l 5
 151 118 211 70 305 70 c 0
 479 70 610 243 630 405 c 1
 705 405 l 1
545 460 m 1
 785 460 l 1
 785 385 l 1
 545 385 l 1
 545 460 l 1
1 200 m 1
 1 490 462 400 462 630 c 5
 586 635 l 1
 586 395 151 460 151 220 c 1
 1 200 l 1
560 75 m 1
 770 75 l 1
 770 0 l 1
 560 0 l 1
 560 75 l 1
666 0 m 1
 526 0 l 1
 205 490 l 2
 180 529 159 578 159 613 c 0
 159 703 244 765 380 765 c 4
 507 765 586 715 586 635 c 1
 462 630 l 5
 462 667 434 705 379 705 c 4
 322 705 287 673 287 630 c 4
 287 595 314 555 355 490 c 2
 666 0 l 1
EndSplineSet
EndChar

StartChar: period
Encoding: 46 46 1
Width: 240
Flags: HMW
LayerCount: 2
Fore
SplineSet
40 65 m 4
 40 109 76 145 120 145 c 4
 164 145 200 109 200 65 c 4
 200 21 164 -15 120 -15 c 4
 76 -15 40 21 40 65 c 4
EndSplineSet
EndChar

StartChar: zero
Encoding: 48 48 2
Width: 530
Flags: HMW
LayerCount: 2
Fore
SplineSet
180 280 m 0
 180 128 201 50 265 50 c 0
 339 50 350 128 350 280 c 0
 350 432 339 510 265 510 c 4
 201 510 180 432 180 280 c 0
30 280 m 0
 30 473 122 575 265 575 c 4
 418 575 500 473 500 280 c 0
 500 87 398 -15 265 -15 c 4
 122 -15 30 87 30 280 c 0
EndSplineSet
EndChar

StartChar: one
Encoding: 49 49 3
Width: 530
VWidth: 1155
Flags: HMW
LayerCount: 2
Fore
SplineSet
72 465 m 17
 188 465 245 468 295 590 c 9
 295 465 l 1
 72 465 l 17
295 465 m 1
 295 590 l 1
 340 590 l 1
 340 465 l 1
 295 465 l 1
72 465 m 1
 340 465 l 1
 340 395 l 1
 72 395 l 1
 72 465 l 1
55 70 m 5
 205 70 l 5
 205 0 l 1
 55 0 l 1
 55 70 l 5
340 70 m 5
 480 70 l 5
 480 0 l 1
 340 0 l 1
 340 70 l 5
205 405 m 1
 340 405 l 1
 340 0 l 1
 205 0 l 1
 205 405 l 1
EndSplineSet
EndChar

StartChar: two
Encoding: 50 50 4
Width: 530
VWidth: 1155
Flags: HMW
LayerCount: 2
Fore
SplineSet
510 157 m 1
 510 12 449 -35 360 -35 c 0
 263 -35 228 25 155 25 c 0
 114 25 94 10 84 -20 c 1
 50 -20 l 1
 70 54 117 127 200 127 c 0
 280 127 300 83 366 83 c 0
 419 83 453 105 453 157 c 1
 510 157 l 1
140 477 m 5
 140 459 202 464 202 398 c 4
 202 351 162 320 125 320 c 4
 86 320 41 348 41 406 c 5
 140 477 l 5
41 406 m 1
 41 508 140 575 262 575 c 0
 403 575 493 520 493 410 c 1
 352 420 l 1
 352 484 321 523 252 523 c 0
 188 523 140 499 140 477 c 1
 41 406 l 1
242 269 m 0
 344.8359375 312.935546875 352 356 352 420 c 1
 493 410 l 1
 493 330 420.857421875 254.379882812 257 205 c 0
 150.1171875 172.790039062 74 80 74 -20 c 1
 25 -20 l 1
 25 127 124.060546875 218.611328125 242 269 c 0
EndSplineSet
EndChar

StartChar: three
Encoding: 51 51 5
Width: 530
VWidth: 1155
Flags: HMW
LayerCount: 2
Fore
SplineSet
500 40 m 1
 359 40 l 1
 359 114 336 206 197 206 c 1
 197 245 l 1
 438 245 500 150 500 40 c 1
55 412 m 1
 55 494 124 575 256 575 c 4
 377 575 480 521 480 401 c 1
 339 401 l 1
 339 485 305 523 236 523 c 0
 192 523 154 495 154 473 c 1
 55 412 l 1
154 473 m 1
 154 450 196 450 196 404 c 0
 196 357 166 336 129 336 c 0
 90 336 55 364 55 412 c 1
 154 473 l 1
25 -1 m 1
 124 -54 l 1
 124 -81 162 -113 236 -113 c 0
 335 -113 359 -34 359 40 c 1
 500 40 l 1
 500 -70 407 -165 256 -165 c 0
 94 -165 25 -93 25 -1 c 1
124 -54 m 1
 25 -1 l 1
 25 52 60 85 99 85 c 0
 136 85 166 64 166 17 c 0
 166 -29 124 -31 124 -54 c 1
197 226 m 1
 197 265 l 1
 326 265 339 337 339 401 c 1
 480 401 l 1
 480 301 438 226 197 226 c 1
EndSplineSet
EndChar

StartChar: four
Encoding: 52 52 6
Width: 530
VWidth: 1155
Flags: HMW
LayerCount: 2
Fore
SplineSet
305 259 m 1
 440 259 l 1
 440 -150 l 1
 305 -150 l 1
 305 259 l 1
103 105 m 1
 35 105 l 1
 95 255 275 420 275 560 c 1
 403 560 l 1
 403 380 163 255 103 105 c 1
70 125 m 1
 510 125 l 1
 510 55 l 1
 70 55 l 1
 70 125 l 1
35 105 m 1
 70 105 l 1
 70 55 l 1
 35 55 l 1
 35 105 l 1
305 -80 m 1
 305 -150 l 1
 220 -150 l 1
 220 -80 l 1
 305 -80 l 1
515 -80 m 1
 515 -150 l 1
 440 -150 l 1
 440 -80 l 1
 515 -80 l 1
415 259 m 1
 415 370 l 1
 440 370 l 1
 440 259 l 1
 415 259 l 1
305 259 m 1
 340 280 395 306 415 370 c 9
 415 259 l 1
 305 259 l 1
EndSplineSet
EndChar

StartChar: five
Encoding: 53 53 7
Width: 530
VWidth: 1155
Flags: HMW
LayerCount: 2
Fore
SplineSet
169 565 m 1
 127 197 l 1
 62 197 l 1
 104 565 l 1
 169 565 l 1
500 80 m 1
 359 60 l 1
 359 194 335 256 246 256 c 0
 183 256 166 237 131 197 c 1
 62 197 l 1
 113 274 157 315 268 315 c 0
 429 315 500 220 500 80 c 1
35 -11 m 1
 134 -62 l 5
 134 -80 172 -108 226 -108 c 0
 325 -108 359 -44 359 60 c 1
 500 80 l 1
 500 -70 377 -160 236 -160 c 0
 114 -160 35 -93 35 -11 c 1
134 -62 m 5
 35 -11 l 1
 35 37 65 80 114 80 c 0
 161 80 177 44 177 7 c 0
 177 -41 134 -44 134 -62 c 5
104 435 m 1
 104 565 l 1
 247 565 l 2
 371 565 373 546 410 597 c 1
 465 597 l 1
 458 525 l 2
 440.098632812 443.1640625 422 435 185 435 c 2
 104 435 l 1
EndSplineSet
EndChar

StartChar: six
Encoding: 54 54 8
Width: 530
VWidth: 1155
Flags: HMW
LayerCount: 2
Fore
SplineSet
460 601 m 1
 353 651 l 1
 353 664 338 673 299 673 c 0
 180 673 165 514 165 350 c 1
 25 350 l 1
 25 550 123 725 294 725 c 0
 386 725 460 683 460 601 c 1
353 651 m 1
 460 601 l 1
 460 543 425 525 386 525 c 0
 349 525 319 546 319 593 c 0
 319 639 353 638 353 651 c 1
505 230 m 1
 365 230 l 1
 365 344 343 406 274 406 c 0
 201 406 165 340 165 260 c 1
 131 260 l 1
 131 367 165 465 296 465 c 0
 407 465 505 380 505 230 c 1
505 230 m 1
 505 110 420 -15 269 -15 c 0
 98 -15 25 110 25 350 c 1
 165 350 l 1
 165 260 l 2
 165 156 190 40 279 40 c 0
 358 40 365 146 365 230 c 1
 505 230 l 1
EndSplineSet
EndChar

StartChar: seven
Encoding: 55 55 9
Width: 540
VWidth: 1155
Flags: HMW
LayerCount: 2
Fore
SplineSet
30 393 m 1
 30 538 91 585 180 585 c 0
 277 585 312 525 385 525 c 0
 426 525 446 540 456 570 c 1
 490 570 l 1
 470 496 423 423 340 423 c 0
 260 423 240 467 174 467 c 0
 121 467 87 445 87 393 c 1
 30 393 l 1
274 46 m 1
 274 -17 332 -16 332 -82 c 0
 332 -129 298 -160 244 -160 c 4
 196 -160 149 -123 149 -44 c 1
 274 46 l 1
333 218 m 0
 286.8359375 124.239257812 274 90 274 46 c 1
 149 -44 l 1
 149 55 204.100585938 123.419921875 264 231 c 0
 332.5 354.02734375 456 520 456 570 c 1
 509 570 l 1
 509 503 401.41015625 356.943359375 333 218 c 0
EndSplineSet
EndChar

StartChar: eight
Encoding: 56 56 10
Width: 530
VWidth: 1155
Flags: HMW
LayerCount: 2
Fore
SplineSet
195 530 m 0
 195 456 206 390 265 390 c 4
 324 390 335 456 335 530 c 0
 335 604 324 670 265 670 c 4
 206 670 195 604 195 530 c 0
55 530 m 0
 55 640 134 725 265 725 c 4
 396 725 475 640 475 530 c 0
 475 420 386 355 265 355 c 0
 144 355 55 420 55 530 c 0
175 190 m 0
 175 106 186 35 265 35 c 4
 344 35 355 106 355 190 c 0
 355 274 344 343 265 343 c 4
 186 343 175 274 175 190 c 0
35 190 m 0
 35 310 124 375 265 375 c 0
 406 375 495 310 495 190 c 0
 495 70 406 -15 265 -15 c 4
 124 -15 35 70 35 190 c 0
EndSplineSet
EndChar

StartChar: A
Encoding: 65 65 12
Width: 950
Flags: HMW
LayerCount: 2
Fore
SplineSet
245 285 m 1
 705 285 l 1
 705 210 l 1
 245 210 l 1
 245 285 l 1
535 75 m 1
 925 75 l 1
 925 0 l 1
 535 0 l 1
 535 75 l 1
25 75 m 1
 325 75 l 1
 325 0 l 1
 25 0 l 1
 25 75 l 1
420 685 m 1
 530 765 l 1
 835 0 l 1
 675 0 l 1
 420 685 l 1
446 765 m 1
 530 765 l 1
 189 0 l 5
 100 0 l 1
 446 765 l 1
EndSplineSet
EndChar

StartChar: B
Encoding: 66 66 13
Width: 800
Flags: HMW
LayerCount: 2
Fore
SplineSet
445 425 m 1
 511 425 575 451 575 550 c 0
 575 649 511 675 445 675 c 1
 445 750 l 1
 596 750 715 695 715 565 c 0
 715 435 606 380 445 380 c 1
 445 425 l 1
145 750 m 1
 280 750 l 1
 280 0 l 1
 145 0 l 1
 145 750 l 1
35 750 m 1
 145 750 l 1
 145 675 l 1
 35 675 l 1
 35 750 l 1
35 75 m 1
 145 75 l 1
 145 0 l 1
 35 0 l 1
 35 75 l 1
255 425 m 1
 465 425 l 1
 465 350 l 1
 255 350 l 1
 255 425 l 1
255 750 m 1
 445 750 l 1
 445 675 l 1
 255 675 l 1
 255 750 l 1
255 75 m 1
 455 75 l 1
 465 0 l 1
 255 0 l 1
 255 75 l 1
455 75 m 1
 531 75 595 116 595 215 c 0
 595 314 531 350 455 350 c 1
 465 395 l 1
 626 395 745 340 745 210 c 4
 745 60 626 0 465 0 c 1
 455 75 l 1
EndSplineSet
EndChar

StartChar: C
Encoding: 67 67 14
Width: 795
Flags: HMW
LayerCount: 2
Fore
SplineSet
645 640 m 17
 695 755 l 9
 695 550 l 1
 645 640 l 17
695 495 m 1
 695 755 l 1
 760 755 l 1
 760 495 l 1
 695 495 l 1
730 495 m 1
 685 495 l 1
 665 597 579 682 455 682 c 0
 311 682 205 547 205 375 c 1
 50 375 l 1
 50 598 207 760 450 760 c 0
 653 760 730 598 730 495 c 1
770 295 m 1
 760 122 638 -10 435 -10 c 0
 192 -10 50 152 50 375 c 1
 205 375 l 1
 205 203 291 69 445 69 c 0
 609 69 685 173 695 295 c 1
 770 295 l 1
EndSplineSet
EndChar

StartChar: D
Encoding: 68 68 15
Width: 855
Flags: HMW
LayerCount: 2
Fore
SplineSet
35 75 m 1
 145 75 l 1
 145 0 l 1
 35 0 l 1
 35 75 l 1
35 750 m 1
 145 750 l 1
 145 675 l 1
 35 675 l 1
 35 750 l 1
145 750 m 1
 280 750 l 1
 280 0 l 1
 145 0 l 1
 145 750 l 1
425 0 m 2
 280 0 l 1
 280 75 l 1
 425 75 l 2
 599 75 650 193 650 375 c 0
 650 557 589 675 425 675 c 2
 280 675 l 1
 280 750 l 1
 425 750 l 2
 668 750 805 588 805 375 c 0
 805 162 658 0 425 0 c 2
EndSplineSet
EndChar

StartChar: E
Encoding: 69 69 16
Width: 735
Flags: HMW
LayerCount: 2
Fore
SplineSet
345 418 m 21
 422 418 455 466 455 533 c 9
 455 418 l 1
 345 418 l 21
455 238 m 21
 455 305 422 358 345 358 c 13
 455 358 l 5
 455 238 l 21
470 75 m 17
 607 75 640 118 640 255 c 9
 640 75 l 1
 470 75 l 17
455 238 m 5
 455 358 l 5
 520 358 l 5
 520 238 l 5
 455 238 l 5
455 418 m 1
 455 533 l 1
 520 533 l 1
 520 418 l 1
 455 418 l 1
640 75 m 1
 640 255 l 1
 710 255 l 1
 710 75 l 1
 640 75 l 1
630 515 m 1
 630 675 l 1
 700 675 l 1
 700 515 l 1
 630 515 l 1
280 75 m 1
 710 75 l 1
 710 0 l 1
 280 0 l 1
 280 75 l 1
280 750 m 1
 700 750 l 1
 700 675 l 1
 280 675 l 1
 280 750 l 1
280 418 m 1
 520 418 l 1
 520 358 l 5
 280 358 l 5
 280 418 l 1
35 75 m 1
 145 75 l 1
 145 0 l 1
 35 0 l 1
 35 75 l 1
35 750 m 1
 145 750 l 1
 145 675 l 1
 35 675 l 1
 35 750 l 1
145 750 m 1
 280 750 l 1
 280 0 l 1
 145 0 l 1
 145 750 l 1
630 515 m 17
 630 632 597 675 480 675 c 9
 630 675 l 1
 630 515 l 17
EndSplineSet
EndChar

StartChar: F
Encoding: 70 70 17
Width: 725
Flags: HMW
LayerCount: 2
Fore
SplineSet
280 75 m 1
 380 75 l 1
 380 0 l 1
 280 0 l 1
 280 75 l 1
335 408 m 21
 412 408 455 446 455 513 c 13
 455 408 l 5
 335 408 l 21
455 228 m 21
 455 295 412 338 335 338 c 13
 455 338 l 5
 455 228 l 21
455 228 m 5
 455 338 l 5
 520 338 l 1
 520 228 l 1
 455 228 l 5
455 408 m 5
 455 513 l 5
 520 513 l 1
 520 408 l 1
 455 408 l 5
620 515 m 1
 620 675 l 1
 690 675 l 1
 690 515 l 1
 620 515 l 1
280 750 m 1
 690 750 l 1
 690 675 l 1
 280 675 l 1
 280 750 l 1
280 408 m 1
 520 408 l 1
 520 338 l 1
 280 338 l 1
 280 408 l 1
35 75 m 1
 145 75 l 1
 145 0 l 1
 35 0 l 1
 35 75 l 1
35 750 m 1
 145 750 l 1
 145 675 l 1
 35 675 l 1
 35 750 l 1
145 750 m 1
 280 750 l 1
 280 0 l 1
 145 0 l 1
 145 750 l 1
620 515 m 17
 620 632 587 675 470 675 c 9
 620 675 l 1
 620 515 l 17
EndSplineSet
EndChar

StartChar: G
Encoding: 71 71 18
Width: 895
Flags: HMW
LayerCount: 2
Fore
SplineSet
665 620 m 21
 705 750 l 13
 705 550 l 5
 665 620 l 21
705 495 m 5
 705 750 l 5
 770 750 l 5
 770 495 l 5
 705 495 l 5
760 495 m 5
 695 495 l 5
 685 597 621 684 457 684 c 0
 303 684 205 557 205 375 c 1
 50 375 l 1
 50 598 227 760 450 760 c 0
 643 760 760 628 760 495 c 5
780 215 m 5
 770 122 648 -10 435 -10 c 4
 207 -10 50 152 50 375 c 1
 205 375 l 1
 205 193 281 65 440 65 c 4
 544 65 615 123 635 185 c 5
 780 215 l 5
635 310 m 5
 780 305 l 5
 780 215 l 5
 635 185 l 5
 635 310 l 5
510 370 m 5
 880 370 l 5
 880 305 l 5
 510 305 l 5
 510 370 l 5
EndSplineSet
EndChar

StartChar: H
Encoding: 72 72 19
Width: 920
Flags: HMW
LayerCount: 2
Fore
SplineSet
280 425 m 5
 640 425 l 5
 640 350 l 1
 280 350 l 1
 280 425 l 5
520 75 m 1
 640 75 l 1
 640 0 l 1
 520 0 l 1
 520 75 l 1
775 75 m 1
 885 75 l 1
 885 0 l 1
 775 0 l 1
 775 75 l 1
35 75 m 1
 145 75 l 1
 145 0 l 1
 35 0 l 1
 35 75 l 1
280 75 m 1
 400 75 l 1
 400 0 l 1
 280 0 l 1
 280 75 l 1
520 750 m 1
 640 750 l 1
 640 675 l 1
 520 675 l 1
 520 750 l 1
775 750 m 1
 885 750 l 1
 885 675 l 1
 775 675 l 1
 775 750 l 1
35 750 m 1
 145 750 l 1
 145 675 l 1
 35 675 l 1
 35 750 l 1
280 750 m 1
 400 750 l 1
 400 675 l 1
 280 675 l 1
 280 750 l 1
640 750 m 1
 775 750 l 1
 775 0 l 1
 640 0 l 1
 640 750 l 1
145 750 m 1
 280 750 l 1
 280 0 l 1
 145 0 l 1
 145 750 l 1
EndSplineSet
EndChar

StartChar: I
Encoding: 73 73 20
Width: 435
Flags: HMW
LayerCount: 2
Fore
SplineSet
35 75 m 1
 145 75 l 1
 145 0 l 1
 35 0 l 1
 35 75 l 1
280 75 m 1
 400 75 l 1
 400 0 l 1
 280 0 l 1
 280 75 l 1
35 750 m 1
 145 750 l 1
 145 675 l 1
 35 675 l 1
 35 750 l 1
280 750 m 1
 400 750 l 1
 400 675 l 1
 280 675 l 1
 280 750 l 1
145 750 m 1
 280 750 l 1
 280 0 l 1
 145 0 l 1
 145 750 l 1
EndSplineSet
EndChar

StartChar: J
Encoding: 74 74 21
Width: 626
Flags: HMW
LayerCount: 2
Fore
SplineSet
346 750 m 1
 481 750 l 1
 481 270 l 1
 346 240 l 1
 346 750 l 1
481 750 m 1
 601 750 l 1
 601 675 l 1
 481 675 l 1
 481 750 l 1
226 750 m 1
 346 750 l 1
 346 675 l 1
 226 675 l 1
 226 750 l 1
5 165 m 1
 135 110 l 1
 135 93 149 65 221 65 c 0
 312 65 346 110 346 240 c 1
 481 270 l 1
 481 100 382 -10 221 -10 c 0
 64 -10 5 75 5 165 c 1
188 201 m 0
 188 131 135 138 135 110 c 1
 5 165 l 1
 5 237 54 280 104 280 c 0
 151 280 188 254 188 201 c 0
EndSplineSet
EndChar

StartChar: K
Encoding: 75 75 22
Width: 880
Flags: HMW
LayerCount: 2
Fore
SplineSet
35 75 m 1
 145 75 l 1
 145 0 l 1
 35 0 l 1
 35 75 l 1
280 75 m 1
 400 75 l 1
 400 0 l 1
 280 0 l 1
 280 75 l 1
35 750 m 1
 145 750 l 1
 145 675 l 1
 35 675 l 1
 35 750 l 1
280 750 m 1
 400 750 l 1
 400 675 l 1
 280 675 l 1
 280 750 l 1
145 750 m 1
 280 750 l 1
 280 0 l 1
 145 0 l 1
 145 750 l 1
245 217 m 1
 152 217 l 1
 696 748 l 1
 801 748 l 1
 245 217 l 1
530 75 m 1
 890 75 l 1
 890 0 l 1
 530 0 l 1
 530 75 l 1
825 675 m 1
 525 675 l 1
 525 750 l 1
 825 750 l 1
 825 675 l 1
842 0 m 5
 682 0 l 5
 384 420 l 1
 475 490 l 1
 842 0 l 5
EndSplineSet
EndChar

StartChar: L
Encoding: 76 76 23
Width: 740
Flags: HMW
LayerCount: 2
Fore
SplineSet
280 750 m 1
 410 750 l 5
 410 675 l 5
 280 675 l 1
 280 750 l 1
465 75 m 17
 582 75 635 118 635 255 c 9
 635 75 l 1
 465 75 l 17
635 75 m 1
 635 255 l 1
 705 255 l 1
 705 75 l 1
 635 75 l 1
280 75 m 1
 705 75 l 1
 705 0 l 1
 280 0 l 1
 280 75 l 1
35 75 m 1
 145 75 l 1
 145 0 l 1
 35 0 l 1
 35 75 l 1
35 750 m 1
 145 750 l 1
 145 675 l 1
 35 675 l 1
 35 750 l 1
145 750 m 1
 280 750 l 1
 280 0 l 1
 145 0 l 1
 145 750 l 1
EndSplineSet
EndChar

StartChar: M
Encoding: 77 77 24
Width: 1045
Flags: HMW
LayerCount: 2
Fore
SplineSet
566 79 m 1
 471 -10 l 1
 213 750 l 1
 344 750 l 1
 566 79 l 1
555 -10 m 1
 471 -10 l 1
 701 750 l 1
 790 750 l 1
 555 -10 l 1
650 75 m 1
 1015 75 l 1
 1015 0 l 1
 650 0 l 1
 650 75 l 1
30 75 m 1
 345 75 l 1
 345 0 l 1
 30 0 l 1
 30 75 l 1
875 750 m 1
 985 750 l 1
 985 675 l 1
 875 675 l 1
 875 750 l 1
60 750 m 1
 175 750 l 1
 175 675 l 1
 60 675 l 1
 60 750 l 1
745 750 m 1
 875 750 l 1
 905 0 l 1
 770 0 l 1
 745 750 l 1
175 750 m 1
 255 750 l 1
 225 0 l 1
 140 0 l 1
 175 750 l 1
EndSplineSet
EndChar

StartChar: N
Encoding: 78 78 25
Width: 885
Flags: HMW
LayerCount: 2
Fore
SplineSet
765 -10 m 1
 690 -10 l 1
 730 85 l 1
 765 85 l 1
 765 -10 l 1
570 750 m 1
 680 750 l 1
 680 675 l 1
 570 675 l 1
 570 750 l 1
753 125 m 5
 690 -10 l 1
 125 750 l 1
 290 750 l 1
 753 125 l 5
35 75 m 1
 140 75 l 1
 140 0 l 1
 35 0 l 1
 35 75 l 1
225 75 m 1
 340 75 l 1
 340 0 l 1
 225 0 l 1
 225 75 l 1
765 750 m 1
 870 750 l 1
 870 675 l 1
 765 675 l 1
 765 750 l 1
35 750 m 1
 140 750 l 1
 140 675 l 1
 35 675 l 1
 35 750 l 1
680 750 m 1
 765 750 l 1
 765 -10 l 1
 680 50 l 1
 680 750 l 1
140 750 m 1
 225 750 l 1
 225 0 l 1
 140 0 l 1
 140 750 l 1
EndSplineSet
EndChar

StartChar: O
Encoding: 79 79 26
Width: 860
Flags: HMW
LayerCount: 2
Fore
SplineSet
205 375 m 4
 205 193 276 60 430 60 c 4
 594 60 655 193 655 375 c 4
 655 557 584 690 430 690 c 4
 276 690 205 557 205 375 c 4
50 375 m 4
 50 588 187 760 430 760 c 4
 673 760 810 588 810 375 c 4
 810 162 663 -10 430 -10 c 4
 187 -10 50 162 50 375 c 4
EndSplineSet
EndChar

StartChar: P
Encoding: 80 80 27
Width: 725
Flags: HMW
LayerCount: 2
Fore
SplineSet
280 75 m 1
 410 75 l 5
 410 0 l 5
 280 0 l 1
 280 75 l 1
410 395 m 1
 496 395 540 456 540 545 c 0
 540 634 496 675 410 675 c 1
 410 750 l 1
 601 750 690 675 690 545 c 0
 690 415 601 320 410 320 c 1
 410 395 l 1
145 750 m 1
 280 750 l 1
 280 0 l 1
 145 0 l 1
 145 750 l 1
35 750 m 1
 145 750 l 1
 145 675 l 1
 35 675 l 1
 35 750 l 1
35 75 m 1
 145 75 l 1
 145 0 l 1
 35 0 l 1
 35 75 l 1
280 395 m 1
 410 395 l 1
 410 320 l 1
 280 320 l 1
 280 395 l 1
280 750 m 1
 410 750 l 1
 410 675 l 1
 280 675 l 1
 280 750 l 1
EndSplineSet
EndChar

StartChar: Q
Encoding: 81 81 28
Width: 870
Flags: HMW
LayerCount: 2
Fore
SplineSet
205 375 m 0
 205 193 276 60 430 60 c 0
 594 60 655 193 655 375 c 0
 655 557 584 690 430 690 c 0
 276 690 205 557 205 375 c 0
50 375 m 0
 50 588 187 760 430 760 c 0
 673 760 810 588 810 375 c 0
 810 162 663 -10 430 -10 c 0
 187 -10 50 162 50 375 c 0
319 65 m 1
 264 100 l 1
 224 121 238 323 377 323 c 0
 562 323 596 -17 693 -17 c 4
 745 -17 770 26 780 82 c 1
 850 82 l 1
 850 82 l 1
 839 -32 779 -145 685 -145 c 4
 506 -145 561 190 379 190 c 0
 299 190 269 113 319 65 c 1
EndSplineSet
EndChar

StartChar: R
Encoding: 82 82 29
Width: 805
Flags: HMW
LayerCount: 2
Fore
SplineSet
450 415 m 5
 516 415 580 456 580 555 c 4
 580 654 516 675 450 675 c 5
 450 750 l 5
 651 750 720 665 720 555 c 4
 720 445 661 364 450 364 c 5
 450 415 l 5
280 750 m 5
 450 750 l 5
 450 675 l 5
 280 675 l 5
 280 750 l 5
280 415 m 5
 470 415 l 5
 470 335 l 5
 280 335 l 5
 280 415 l 5
35 75 m 5
 145 75 l 5
 145 0 l 5
 35 0 l 5
 35 75 l 5
35 750 m 5
 145 750 l 5
 145 675 l 5
 35 675 l 5
 35 750 l 5
145 750 m 5
 280 750 l 5
 280 0 l 5
 145 0 l 5
 145 750 l 5
280 75 m 5
 390 75 l 5
 390 0 l 5
 280 0 l 5
 280 75 l 5
835 84 m 5
 813 38 756 -10 690 -10 c 4
 427.03125 -10 656.256835938 335 400 335 c 5
 460 381 l 5
 783.294921875 381 631.228515625 84 724 84 c 4
 745 84 771 106 793 132 c 5
 835 84 l 5
EndSplineSet
Substitution2: "'ss01' Style Set 1 lookup 2-1" uniFFFD
EndChar

StartChar: S
Encoding: 83 83 30
Width: 670
Flags: HMW
LayerCount: 2
Fore
SplineSet
182 103 m 17
 120 -5 l 9
 120 165 l 1
 182 103 l 17
120 255 m 1
 120 -5 l 1
 45 -5 l 1
 45 255 l 1
 120 255 l 1
110 160 m 5
 120 255 l 1
 120 156 221 56 345 56 c 0
 471 56 515 116 515 185 c 1
 645 210 l 1
 645 70 526 -15 355 -15 c 0
 199 -15 110 80 110 160 c 5
75 559 m 1
 201 593 l 5
 201 393 645 520 645 210 c 1
 515 185 l 1
 515 405 75 269 75 559 c 1
478 652 m 17
 540 750 l 9
 540 590 l 1
 478 652 l 17
540 505 m 1
 540 750 l 1
 615 750 l 1
 615 505 l 1
 540 505 l 1
550 595 m 5
 540 505 l 1
 540 624 439 689 345 689 c 4
 249 689 201 652 201 593 c 5
 75 559 l 1
 75 699 194 760 325 760 c 4
 451 760 550 685 550 595 c 5
EndSplineSet
EndChar

StartChar: T
Encoding: 84 84 31
Width: 725
Flags: HMW
LayerCount: 2
Fore
SplineSet
470 680 m 9
 640 680 l 1
 640 495 l 21
 640 642 607 680 470 680 c 9
640 680 m 1
 710 680 l 1
 710 495 l 1
 640 495 l 1
 640 680 l 1
255 680 m 21
 118 680 85 642 85 495 c 13
 85 680 l 5
 255 680 l 21
85 680 m 5
 85 495 l 5
 15 495 l 1
 15 680 l 1
 85 680 l 5
295 750 m 1
 295 680 l 1
 15 680 l 1
 15 750 l 1
 295 750 l 1
430 75 m 1
 560 75 l 1
 560 0 l 1
 430 0 l 1
 430 75 l 1
430 750 m 1
 710 750 l 1
 710 680 l 1
 430 680 l 1
 430 750 l 1
165 75 m 1
 295 75 l 1
 295 0 l 1
 165 0 l 1
 165 75 l 1
295 750 m 1
 430 750 l 1
 430 0 l 1
 295 0 l 1
 295 750 l 1
EndSplineSet
EndChar

StartChar: U
Encoding: 85 85 32
Width: 830
Flags: HMW
LayerCount: 2
Fore
SplineSet
120 750 m 1
 255 750 l 1
 255 310 l 1
 120 300 l 1
 120 750 l 1
630 750 m 1
 710 750 l 1
 710 300 l 1
 630 300 l 1
 630 750 l 1
255 750 m 1
 375 750 l 1
 375 675 l 1
 255 675 l 1
 255 750 l 1
10 750 m 1
 120 750 l 1
 120 675 l 1
 10 675 l 1
 10 750 l 1
710 750 m 1
 820 750 l 1
 820 675 l 1
 710 675 l 1
 710 750 l 1
505 750 m 1
 630 750 l 1
 630 675 l 1
 505 675 l 1
 505 750 l 1
630 300 m 1
 710 300 l 1
 710 95 598 -15 420 -15 c 0
 177 -15 120 117 120 300 c 1
 255 310 l 1
 255 158 291 75 435 75 c 4
 549 75 630 128 630 300 c 1
EndSplineSet
EndChar

StartChar: V
Encoding: 86 86 33
Width: 850
Flags: HMW
LayerCount: 2
Fore
SplineSet
345 675 m 1
 -5 675 l 1
 -5 750 l 1
 345 750 l 1
 345 675 l 1
855 675 m 1
 575 675 l 1
 575 750 l 1
 855 750 l 1
 855 675 l 1
485 65 m 1
 385 -15 l 1
 55 750 l 1
 205 750 l 1
 485 65 l 1
465 -15 m 5
 385 -15 l 1
 705 750 l 1
 795 750 l 1
 465 -15 l 5
EndSplineSet
EndChar

StartChar: W
Encoding: 87 87 34
Width: 1220
Flags: HMW
LayerCount: 2
Fore
SplineSet
1220 675 m 1
 940 675 l 1
 940 750 l 1
 1220 750 l 1
 1220 675 l 1
901 75 m 5
 796 -10 l 1
 560 750 l 1
 700 750 l 1
 901 75 l 5
875 -10 m 1
 796 -10 l 1
 1060 750 l 1
 1138 750 l 1
 875 -10 l 1
350 675 m 1
 0 675 l 1
 0 750 l 1
 350 750 l 1
 350 675 l 1
790 675 m 1
 490 675 l 1
 490 750 l 1
 790 750 l 1
 790 675 l 1
460 75 m 5
 355 -10 l 1
 90 750 l 1
 230 750 l 1
 460 75 l 5
435 -10 m 1
 355 -10 l 1
 618 652 l 1
 696 652 l 1
 435 -10 l 1
EndSplineSet
EndChar

StartChar: X
Encoding: 88 88 35
Width: 880
Flags: HMW
LayerCount: 2
Fore
SplineSet
485 377 m 1
 392 377 l 1
 686 748 l 1
 776 748 l 1
 485 377 l 1
164 0 m 1
 71 0 l 5
 407 417 l 5
 497 417 l 1
 164 0 l 1
515 75 m 1
 875 75 l 1
 875 0 l 1
 515 0 l 1
 515 75 l 1
5 75 m 1
 315 75 l 1
 315 0 l 1
 5 0 l 1
 5 75 l 1
400 675 m 1
 40 675 l 1
 40 750 l 1
 400 750 l 1
 400 675 l 1
840 675 m 1
 530 675 l 1
 530 750 l 1
 840 750 l 1
 840 675 l 1
831 0 m 1
 661 0 l 1
 80 750 l 1
 246 750 l 1
 831 0 l 1
EndSplineSet
EndChar

StartChar: Y
Encoding: 89 89 36
Width: 815
Flags: HMW
LayerCount: 2
Fore
SplineSet
240 75 m 1
 350 75 l 1
 350 0 l 1
 240 0 l 1
 240 75 l 1
485 75 m 1
 605 75 l 1
 605 0 l 1
 485 0 l 1
 485 75 l 1
350 350 m 1
 485 350 l 1
 485 0 l 1
 350 0 l 1
 350 350 l 1
475 317 m 1
 386 317 l 1
 686 748 l 1
 776 748 l 1
 475 317 l 1
355 675 m 5
 -5 675 l 1
 -5 750 l 1
 355 750 l 5
 355 675 l 5
820 675 m 1
 520 675 l 1
 520 750 l 1
 820 750 l 1
 820 675 l 1
484 334 m 1
 356 300 l 1
 55 750 l 1
 215 750 l 5
 484 334 l 1
EndSplineSet
EndChar

StartChar: Z
Encoding: 90 90 37
Width: 725
Flags: HMW
LayerCount: 2
Fore
SplineSet
310 675 m 17
 183 675 140 632 140 515 c 9
 140 675 l 1
 310 675 l 17
450 75 m 17
 577 75 620 118 620 255 c 9
 620 75 l 1
 450 75 l 17
510 675 m 1
 670 675 l 1
 190 75 l 5
 30 75 l 1
 510 675 l 1
620 75 m 1
 620 255 l 1
 690 255 l 1
 690 75 l 1
 620 75 l 1
140 515 m 1
 70 515 l 1
 70 675 l 1
 140 675 l 1
 140 515 l 1
30 75 m 1
 690 75 l 1
 690 0 l 1
 30 0 l 1
 30 75 l 1
670 750 m 1
 670 675 l 1
 70 675 l 1
 70 750 l 1
 670 750 l 1
EndSplineSet
EndChar

StartChar: a
Encoding: 97 97 38
Width: 606
VWidth: 1155
Flags: HMW
LayerCount: 2
Fore
SplineSet
304 294 m 5
 304 246 l 5
 188 246 162 180 162 143 c 4
 162 86 205 61 245 61 c 4
 303 61 346 95 346 186 c 5
 385 174 l 5
 385 50 301 -15 200 -15 c 4
 91 -15 25 34 25 128 c 4
 25 222 112 294 304 294 c 5
486 352 m 5
 486 106 l 5
 346 78 l 5
 346 372 l 5
 486 352 l 5
45 383 m 5
 45 470 147 535 278 535 c 4
 398 535 486 473 486 352 c 5
 346 362 l 5
 346 429 333 474 253 474 c 4
 199 474 168 457 168 442 c 5
 45 383 l 5
304 294 m 5
 448 294 l 5
 448 246 l 5
 304 246 l 5
 304 294 l 5
606 78 m 5
 583 18 539 -15 476 -15 c 4
 399 -15 356 29 356 88 c 5
 486 106 l 5
 486 86 498 62 522 62 c 4
 542 62 552 75 564 102 c 5
 606 78 l 5
199 379 m 4
 199 335 168 310 124 310 c 4
 78 310 45 339 45 383 c 5
 168 442 l 5
 168 429 199 427 199 379 c 4
EndSplineSet
EndChar

StartChar: b
Encoding: 98 98 39
Width: 658
VWidth: 1155
Flags: HMW
LayerCount: 2
Fore
SplineSet
230 260 m 4
 230 146 287 62 358 62 c 4
 422 62 478 146 478 260 c 4
 478 374 422 458 358 458 c 4
 287 458 230 374 230 260 c 4
201 260 m 4
 201 412 255 534 396 534 c 4
 505 534 618 440 618 260 c 4
 618 80 495 -15 386 -15 c 4
 255 -15 201 108 201 260 c 4
10 65 m 5
 100 65 l 5
 100 0 l 5
 10 0 l 5
 10 65 l 5
10 780 m 5
 100 780 l 5
 100 715 l 5
 10 715 l 5
 10 780 l 5
100 780 m 5
 230 780 l 5
 230 0 l 5
 100 0 l 5
 100 780 l 5
EndSplineSet
EndChar

StartChar: c
Encoding: 99 99 40
Width: 563
VWidth: 1155
Flags: HMW
LayerCount: 2
Fore
SplineSet
40 250 m 1
 185 270 l 1
 185 146 216 49 315 49 c 0
 388 49 432 93 457 173 c 1
 528 173 l 1
 502 66 434 -15 303 -15 c 0
 132 -15 40 110 40 250 c 1
520 373 m 1
 402 428 l 1
 402 446 367 469 319 469 c 4
 224 469 185 384 185 270 c 1
 40 250 l 1
 40 400 138 535 299 535 c 0
 451 535 520 450 520 373 c 1
402 428 m 1
 520 373 l 1
 520 315 475 280 436 280 c 0
 389 280 359 306 359 353 c 0
 359 399 402 406 402 428 c 1
EndSplineSet
EndChar

StartChar: d
Encoding: 100 100 41
Width: 658
VWidth: 1155
Flags: HMW
LayerCount: 2
Fore
SplineSet
428 260 m 4
 428 374 371 458 300 458 c 4
 236 458 180 374 180 260 c 4
 180 146 236 62 300 62 c 4
 371 62 428 146 428 260 c 4
457 260 m 4
 457 108 403 -15 272 -15 c 4
 163 -15 40 80 40 260 c 4
 40 440 153 534 262 534 c 4
 403 534 457 412 457 260 c 4
648 65 m 5
 648 0 l 5
 558 0 l 5
 558 65 l 5
 648 65 l 5
558 780 m 5
 558 0 l 5
 428 0 l 5
 428 780 l 5
 558 780 l 5
428 780 m 5
 428 715 l 5
 338 715 l 5
 338 780 l 5
 428 780 l 5
EndSplineSet
EndChar

StartChar: e
Encoding: 101 101 42
Width: 569
VWidth: 1155
Flags: HMW
LayerCount: 2
Fore
SplineSet
40 250 m 5
 181 275 l 5
 181 151 201 54 310 54 c 4
 383 54 422 93 447 173 c 5
 518 173 l 5
 492 66 429 -15 298 -15 c 4
 127 -15 40 110 40 250 c 5
157 319 m 5
 451 319 l 5
 451 256 l 5
 157 256 l 5
 157 319 l 5
524 256 m 5
 384 256 l 5
 384 359 388 476 294 476 c 4
 205 476 181 374 181 270 c 5
 40 250 l 5
 40 410 114 535 295 535 c 4
 494 535 524 385 524 256 c 5
EndSplineSet
EndChar

StartChar: f
Encoding: 102 102 43
Width: 430
VWidth: 1155
Flags: HMW
LayerCount: 2
Fore
SplineSet
540 674 m 5
 411 718 l 5
 411 730 386 740 344 740 c 4
 274 740 245 677 245 550 c 5
 115 572 l 5
 115 703 192 795 342 795 c 4
 473 795 540 741 540 674 c 5
383 656 m 4
 383 696 411 703 411 718 c 5
 540 674 l 5
 540 621 503 588 458 588 c 4
 413 588 383 618 383 656 c 4
25 65 m 5
 115 65 l 5
 115 0 l 5
 25 0 l 5
 25 65 l 5
245 65 m 5
 365 65 l 5
 365 0 l 5
 245 0 l 5
 245 65 l 5
25 520 m 5
 385 520 l 5
 385 455 l 5
 25 455 l 5
 25 520 l 5
115 572 m 5
 245 550 l 5
 245 0 l 5
 115 0 l 5
 115 572 l 5
EndSplineSet
EndChar

StartChar: g
Encoding: 103 103 44
Width: 617
VWidth: 1155
Flags: HMW
LayerCount: 2
Fore
SplineSet
225 22 m 1
 165 -4 155 -70 155 -102 c 0
 155 -170 195 -203 291 -203 c 0
 375 -203 444 -169 444 -107 c 1
 555 -82 l 1
 555 -193 455 -265 275 -265 c 0
 112 -265 20 -220 20 -135 c 0
 20 -44 130 12 175 12 c 1
 225 22 l 1
52 84 m 1
 145 116 l 1
 145 89 182 89 237 89 c 0
 262 89 320 90 348 90 c 0
 463 90 555 54 555 -82 c 1
 444 -107 l 1
 444 -33 400 -9 345 -9 c 0
 324 -9 273 -9 251 -9 c 0
 161 -9 52 -8 52 84 c 1
265 168 m 1
 222 168 145 150 145 116 c 1
 52 84 l 1
 52 158 152 197 267 197 c 1
 265 168 l 1
622 439 m 1
 525 477 l 1
 525 484 520 487 509 487 c 0
 481 487 438 467 418 380 c 1
 378 402 l 1
 398 493 458 535 518 535 c 0
 589 535 622 491 622 439 c 1
501 428 m 0
 501 462 525 463 525 477 c 1
 622 439 l 1
 622 400 589 374 559 374 c 0
 526 374 501 398 501 428 c 0
45 345 m 0
 45 455 133 535 264 535 c 0
 395 535 483 455 483 345 c 0
 483 235 395 155 264 155 c 0
 133 155 45 235 45 345 c 0
180 345 m 0
 180 271 195 205 264 205 c 0
 333 205 348 271 348 345 c 0
 348 419 333 485 264 485 c 0
 195 485 180 419 180 345 c 0
EndSplineSet
EndChar

StartChar: h
Encoding: 104 104 45
Width: 690
VWidth: 1155
Flags: HMW
LayerCount: 2
Fore
SplineSet
575 65 m 1
 665 65 l 1
 665 0 l 1
 575 0 l 1
 575 65 l 1
375 65 m 1
 445 65 l 1
 445 0 l 1
 375 0 l 1
 375 65 l 1
445 358 m 1
 575 369 l 1
 575 0 l 1
 445 0 l 1
 445 358 l 1
230 65 m 1
 300 65 l 1
 300 0 l 1
 230 0 l 1
 230 65 l 1
100 780 m 5
 230 780 l 5
 230 0 l 1
 100 0 l 1
 100 780 l 5
10 780 m 5
 100 780 l 5
 100 715 l 5
 10 715 l 5
 10 780 l 5
10 65 m 1
 100 65 l 1
 100 0 l 1
 10 0 l 1
 10 65 l 1
445 358 m 1
 445 432 431 463 380 463 c 0
 292 463 230 386 230 283 c 1
 201 283 l 1
 201 385 250 535 403 535 c 0
 520 535 575 476 575 369 c 1
 445 358 l 1
EndSplineSet
EndChar

StartChar: i
Encoding: 105 105 46
Width: 340
VWidth: 1155
Flags: HMW
LayerCount: 2
Fore
SplineSet
85 700 m 4
 85 744 118 780 170 780 c 4
 222 780 255 744 255 700 c 4
 255 656 222 620 170 620 c 4
 118 620 85 656 85 700 c 4
20 65 m 5
 110 65 l 5
 110 0 l 5
 20 0 l 5
 20 65 l 5
240 65 m 5
 330 65 l 5
 330 0 l 5
 240 0 l 5
 240 65 l 5
20 520 m 5
 110 520 l 5
 110 455 l 5
 20 455 l 5
 20 520 l 5
110 520 m 5
 240 520 l 5
 240 0 l 5
 110 0 l 5
 110 520 l 5
EndSplineSet
EndChar

StartChar: j
Encoding: 106 106 47
Width: 330
VWidth: 1155
Flags: HMW
LayerCount: 2
Fore
SplineSet
-125 -131 m 5
 0 -180 l 5
 0 -192 12 -207 36 -207 c 4
 126 -207 100 -23 100 104 c 5
 230 11 l 5
 230 -120 183 -262 33 -262 c 4
 -88 -262 -125 -198 -125 -131 c 5
32 -113 m 4
 32 -163 0 -165 0 -180 c 5
 -125 -131 l 5
 -125 -78 -88 -45 -43 -45 c 4
 2 -45 32 -75 32 -113 c 4
75 700 m 4
 75 744 108 780 160 780 c 4
 212 780 245 744 245 700 c 4
 245 656 212 620 160 620 c 4
 108 620 75 656 75 700 c 4
10 520 m 5
 100 520 l 5
 100 455 l 5
 10 455 l 5
 10 520 l 5
100 520 m 5
 230 520 l 5
 230 11 l 5
 100 104 l 5
 100 520 l 5
EndSplineSet
EndChar

StartChar: k
Encoding: 107 107 48
Width: 656
VWidth: 1155
Flags: HMW
LayerCount: 2
Fore
SplineSet
359 65 m 1
 646 65 l 1
 646 0 l 1
 359 0 l 1
 359 65 l 1
612 445 m 5
 329 445 l 1
 329 520 l 1
 612 520 l 5
 612 445 l 5
618 0 m 1
 465 0 l 1
 222 291 l 1
 347 326 l 1
 618 0 l 1
320 280 m 1
 222 291 l 1
 509 520 l 1
 609 520 l 1
 320 280 l 1
10 65 m 1
 100 65 l 1
 100 0 l 1
 10 0 l 1
 10 65 l 1
230 65 m 1
 310 65 l 1
 310 0 l 1
 230 0 l 1
 230 65 l 1
10 780 m 1
 100 780 l 1
 100 715 l 1
 10 715 l 1
 10 780 l 1
100 780 m 1
 230 780 l 1
 230 0 l 1
 100 0 l 1
 100 780 l 1
EndSplineSet
EndChar

StartChar: l
Encoding: 108 108 49
Width: 330
VWidth: 1155
Flags: HMW
LayerCount: 2
Fore
SplineSet
10 65 m 5
 100 65 l 5
 100 0 l 5
 10 0 l 5
 10 65 l 5
230 65 m 5
 320 65 l 5
 320 0 l 5
 230 0 l 5
 230 65 l 5
10 780 m 5
 100 780 l 5
 100 715 l 5
 10 715 l 5
 10 780 l 5
100 780 m 5
 230 780 l 5
 230 0 l 5
 100 0 l 5
 100 780 l 5
EndSplineSet
EndChar

StartChar: m
Encoding: 109 109 50
Width: 953
VWidth: 1155
Flags: HMW
LayerCount: 2
Fore
SplineSet
847 55 m 1
 928 55 l 1
 928 0 l 1
 847 0 l 1
 847 55 l 1
644 55 m 1
 717 55 l 1
 717 0 l 1
 644 0 l 1
 644 55 l 1
717 358 m 1
 847 369 l 1
 847 0 l 1
 717 0 l 1
 717 358 l 1
351 55 m 1
 411 55 l 1
 411 0 l 1
 351 0 l 1
 351 55 l 1
717 358 m 1
 717 432 708 473 662 473 c 0
 594 473 541 386 541 283 c 1
 502 283 l 1
 502 395 552 535 685 535 c 4
 802 535 847 476 847 369 c 1
 717 358 l 1
541 55 m 1
 602 55 l 1
 602 0 l 1
 541 0 l 1
 541 55 l 1
411 358 m 1
 541 369 l 1
 541 0 l 1
 411 0 l 1
 411 358 l 1
235 55 m 1
 308 55 l 1
 308 0 l 1
 235 0 l 1
 235 55 l 1
105 520 m 1
 235 520 l 1
 235 0 l 1
 105 0 l 1
 105 520 l 1
25 520 m 1
 105 520 l 1
 105 465 l 1
 25 465 l 1
 25 520 l 1
25 55 m 1
 105 55 l 1
 105 0 l 1
 25 0 l 1
 25 55 l 1
411 358 m 1
 411 432 402 473 356 473 c 0
 278 473 235 386 235 283 c 1
 206 283 l 1
 206 395 246 535 379 535 c 4
 496 535 541 476 541 369 c 1
 411 358 l 1
EndSplineSet
EndChar

StartChar: n
Encoding: 110 110 51
Width: 705
VWidth: 1155
Flags: HMW
LayerCount: 2
Fore
SplineSet
590 65 m 5
 680 65 l 5
 680 0 l 5
 590 0 l 5
 590 65 l 5
390 65 m 5
 460 65 l 5
 460 0 l 5
 390 0 l 5
 390 65 l 5
460 358 m 5
 590 369 l 5
 590 0 l 5
 460 0 l 5
 460 358 l 5
245 65 m 5
 315 65 l 5
 315 0 l 5
 245 0 l 5
 245 65 l 5
115 520 m 5
 245 520 l 5
 245 0 l 5
 115 0 l 5
 115 520 l 5
25 520 m 5
 115 520 l 5
 115 455 l 5
 25 455 l 5
 25 520 l 5
25 65 m 5
 115 65 l 5
 115 0 l 5
 25 0 l 5
 25 65 l 5
460 358 m 5
 460 432 446 463 395 463 c 4
 307 463 245 386 245 283 c 5
 216 283 l 5
 216 385 265 535 418 535 c 4
 535 535 590 476 590 369 c 5
 460 358 l 5
EndSplineSet
EndChar

StartChar: o
Encoding: 111 111 52
Width: 598
VWidth: 1155
Flags: HMW
LayerCount: 2
Fore
SplineSet
185 270 m 0
 185 146 210 45 299 45 c 0
 388 45 413 146 413 250 c 0
 413 374 388 475 299 475 c 4
 210 475 185 374 185 270 c 0
40 245 m 0
 40 405 128 535 299 535 c 0
 470 535 558 410 558 270 c 0
 558 110 470 -15 299 -15 c 0
 128 -15 40 105 40 245 c 0
EndSplineSet
EndChar

StartChar: p
Encoding: 112 112 53
Width: 658
VWidth: 1155
Flags: HMW
LayerCount: 2
Fore
SplineSet
230 -185 m 5
 320 -185 l 5
 320 -250 l 5
 230 -250 l 5
 230 -185 l 5
230 260 m 0
 230 146 287 62 358 62 c 0
 422 62 478 146 478 260 c 0
 478 374 422 458 358 458 c 0
 287 458 230 374 230 260 c 0
201 260 m 0
 201 412 255 534 396 534 c 0
 505 534 618 440 618 260 c 0
 618 80 495 -15 386 -15 c 0
 255 -15 201 108 201 260 c 0
10 -185 m 1
 100 -185 l 1
 100 -250 l 1
 10 -250 l 1
 10 -185 l 1
10 520 m 1
 100 520 l 1
 100 455 l 1
 10 455 l 1
 10 520 l 1
100 520 m 1
 230 520 l 1
 230 -250 l 1
 100 -250 l 1
 100 520 l 1
EndSplineSet
EndChar

StartChar: q
Encoding: 113 113 54
Width: 658
VWidth: 1155
Flags: HMW
LayerCount: 2
Fore
SplineSet
428 -185 m 5
 428 -250 l 5
 338 -250 l 5
 338 -185 l 5
 428 -185 l 5
428 260 m 0
 428 374 371 458 300 458 c 0
 236 458 180 374 180 260 c 0
 180 146 236 62 300 62 c 0
 371 62 428 146 428 260 c 0
457 260 m 0
 457 108 403 -15 272 -15 c 0
 163 -15 40 80 40 260 c 0
 40 440 153 534 262 534 c 0
 403 534 457 412 457 260 c 0
648 -185 m 1
 648 -250 l 1
 558 -250 l 1
 558 -185 l 1
 648 -185 l 1
558 520 m 1
 558 -250 l 1
 428 -250 l 1
 428 520 l 1
 558 520 l 1
648 520 m 1
 648 455 l 1
 558 455 l 1
 558 520 l 1
 648 520 l 1
EndSplineSet
EndChar

StartChar: r
Encoding: 114 114 55
Width: 503
VWidth: 1155
Flags: HMW
LayerCount: 2
Fore
SplineSet
350 466 m 1
 350 471 346 476 335 476 c 4
 287 476 225 386 225 283 c 1
 201 283 l 1
 201 375 219 535 370 535 c 4
 444 535 493 494 493 426 c 1
 350 466 l 1
5 65 m 1
 95 65 l 1
 95 0 l 1
 5 0 l 1
 5 65 l 1
5 520 m 1
 95 520 l 1
 95 455 l 1
 5 455 l 1
 5 520 l 1
95 520 m 1
 225 520 l 1
 225 0 l 1
 95 0 l 1
 95 520 l 1
225 65 m 1
 315 65 l 1
 315 0 l 1
 225 0 l 1
 225 65 l 1
330 411 m 0
 330 458 350 454 350 466 c 1
 493 426 l 1
 493 374 456 340 411 340 c 0
 367 340 330 370 330 411 c 0
EndSplineSet
EndChar

StartChar: s
Encoding: 115 115 56
Width: 500
VWidth: 1155
Flags: HMW
LayerCount: 2
Fore
SplineSet
42 385 m 1
 160 406 l 1
 160 296 475 355 475 147 c 1
 352 128 l 1
 352 245 42 179 42 385 c 1
130 67 m 17
 85 -10 l 9
 85 112 l 1
 130 67 l 17
90 173 m 1
 85 -10 l 1
 25 -10 l 1
 25 173 l 1
 90 173 l 1
65 97 m 5
 90 173 l 1
 110 90 186 50 248 50 c 0
 318 50 352 87 352 128 c 1
 475 147 l 1
 475 23 385 -17 268 -17 c 0
 139 -17 65 69 65 97 c 5
352 453 m 17
 397 530 l 1
 397 408 l 1
 352 453 l 17
392 350 m 1
 397 530 l 1
 457 530 l 1
 457 350 l 1
 392 350 l 1
394 423 m 1
 392 350 l 1
 382 433 300 471 248 471 c 0
 185 471 160 443 160 406 c 1
 42 385 l 1
 42 489 132 537 227 537 c 0
 365 537 394 449 394 423 c 1
EndSplineSet
EndChar

StartChar: t
Encoding: 116 116 57
Width: 398
VWidth: 1155
Flags: HMW
LayerCount: 2
Fore
SplineSet
368 96 m 1
 345 36 301 -17 218 -17 c 0
 121 -17 98 37 98 96 c 1
 228 104 l 1
 228 84 240 65 264 65 c 0
 284 65 313 94 325 121 c 1
 368 96 l 1
5 520 m 17
 91 520 163 523 163 700 c 13
 163 520 l 5
 5 520 l 17
163 520 m 5
 163 700 l 5
 228 700 l 1
 228 520 l 1
 163 520 l 5
5 520 m 1
 355 520 l 1
 355 455 l 1
 5 455 l 1
 5 520 l 1
228 498 m 1
 228 104 l 1
 98 96 l 1
 98 498 l 1
 228 498 l 1
EndSplineSet
EndChar

StartChar: u
Encoding: 117 117 58
Width: 705
VWidth: 1155
Flags: HMW
LayerCount: 2
Fore
SplineSet
115 455 m 1
 25 455 l 1
 25 520 l 1
 115 520 l 1
 115 455 l 1
245 162 m 1
 115 151 l 1
 115 520 l 1
 245 520 l 1
 245 162 l 1
460 455 m 1
 370 455 l 1
 370 520 l 1
 460 520 l 1
 460 455 l 1
590 0 m 1
 460 0 l 1
 460 520 l 1
 590 520 l 1
 590 0 l 1
680 0 m 1
 590 0 l 1
 590 65 l 1
 680 65 l 1
 680 0 l 1
245 162 m 1
 245 88 259 57 310 57 c 0
 398 57 460 134 460 237 c 1
 489 237 l 1
 489 135 440 -15 287 -15 c 0
 170 -15 115 44 115 151 c 1
 245 162 l 1
EndSplineSet
EndChar

StartChar: v
Encoding: 118 118 59
Width: 619
VWidth: 1155
Flags: HMW
LayerCount: 2
Fore
SplineSet
291 455 m 1
 0 455 l 1
 0 520 l 1
 291 520 l 1
 291 455 l 1
619 455 m 1
 395 455 l 1
 395 520 l 1
 619 520 l 1
 619 455 l 1
368 70 m 5
 283 -15 l 5
 45 520 l 1
 195 520 l 1
 368 70 l 5
360 -15 m 5
 283 -15 l 5
 493 520 l 1
 570 520 l 1
 360 -15 l 5
EndSplineSet
EndChar

StartChar: w
Encoding: 119 119 60
Width: 895
VWidth: 1155
Flags: HMW
LayerCount: 2
Fore
SplineSet
574 -10 m 1
 574 35 l 1
 661 35 l 1
 661 -10 l 1
 574 -10 l 1
238 -10 m 1
 238 35 l 1
 325 35 l 1
 325 -10 l 1
 238 -10 l 1
895 455 m 1
 641 455 l 1
 641 520 l 1
 895 520 l 1
 895 455 l 1
671 55 m 1
 574 -10 l 1
 424 433 l 1
 510 520 l 1
 671 55 l 1
663 -10 m 1
 584 -10 l 1
 754 520 l 1
 836 520 l 1
 663 -10 l 1
311 455 m 1
 0 455 l 1
 0 520 l 1
 311 520 l 1
 311 455 l 1
345 45 m 5
 238 -10 l 1
 65 520 l 1
 199 520 l 1
 345 45 l 5
327 -10 m 1
 248 -10 l 1
 428 520 l 1
 510 520 l 1
 327 -10 l 1
EndSplineSet
EndChar

StartChar: x
Encoding: 120 120 61
Width: 614
VWidth: 1155
Flags: HMW
LayerCount: 2
Fore
SplineSet
348 65 m 5
 614 65 l 1
 614 0 l 1
 348 0 l 5
 348 65 l 5
10 65 m 1
 229 65 l 1
 229 0 l 1
 10 0 l 1
 10 65 l 1
271 455 m 1
 0 455 l 1
 0 520 l 1
 271 520 l 1
 271 455 l 1
584 455 m 1
 370 455 l 1
 370 520 l 1
 584 520 l 1
 584 455 l 1
609 0 m 1
 454 0 l 5
 15 520 l 1
 170 520 l 1
 609 0 l 1
125 0 m 1
 30 0 l 1
 479 520 l 1
 574 520 l 1
 125 0 l 1
EndSplineSet
EndChar

StartChar: y
Encoding: 121 121 62
Width: 638
VWidth: 1155
Flags: HMW
LayerCount: 2
Fore
SplineSet
164 -97 m 4
 164 -165 106 -160 106 -176 c 1
 3 -128 l 1
 3 -72 28 -23 89 -23 c 0
 139 -23 164 -56 164 -97 c 4
401 58 m 1
 320 -67 l 1
 54 520 l 1
 194 520 l 1
 401 58 l 1
638 455 m 1
 423 455 l 1
 423 520 l 1
 638 520 l 1
 638 455 l 1
291 455 m 1
 0 455 l 1
 0 520 l 1
 291 520 l 1
 291 455 l 1
151 -205 m 1
 190 -205 245.92578125 -180.27734375 293 -60 c 2
 520 520 l 1
 594 520 l 1
 347 -102 l 2
 295.118298324 -232.649467378 209 -265 151 -265 c 1
 151 -205 l 1
3 -128 m 1
 106 -176 l 1
 106 -189 118 -205 151 -205 c 1
 151 -265 l 1
 54 -265 3 -195 3 -128 c 1
EndSplineSet
EndChar

StartChar: z
Encoding: 122 122 63
Width: 560
VWidth: 1155
Flags: HMW
LayerCount: 2
Fore
SplineSet
360 460 m 1
 509 460 l 1
 193 60 l 1
 35 60 l 1
 360 460 l 1
299 60 m 21
 446 60 460 100 460 214 c 13
 460 60 l 1
 299 60 l 21
460 60 m 1
 460 214 l 1
 520 214 l 1
 520 60 l 1
 460 60 l 1
118 318 m 1
 58 318 l 1
 58 460 l 1
 118 460 l 1
 118 318 l 1
35 60 m 1
 520 60 l 1
 520 0 l 1
 35 0 l 1
 35 60 l 1
509 520 m 1
 509 460 l 1
 58 460 l 1
 58 520 l 1
 509 520 l 1
118 318 m 13
 118 460 l 1
 256 460 l 17
 132 460 118 409 118 318 c 13
EndSplineSet
EndChar

StartChar: comma
Encoding: 44 44 65
Width: 265
Flags: HMW
LayerCount: 2
Fore
SplineSet
227 9 m 1
 227 -91 128 -156 38 -156 c 1
 38 -106 l 1
 93 -106 173 -54 157 16 c 1
 173.365234375 21.9150390625 198.764648438 63.1123046875 227 9 c 1
40 74 m 0
 40 117 79 153 127 153 c 4
 201 153 227 92 227 9 c 0
 227 -5.7080078125 200.043945312 43.44140625 192 34.107421875 c 0
 168.506835938 6.84375 136.291992188 -5 108 -5 c 4
 65 -5 40 31 40 74 c 0
EndSplineSet
EndChar

StartChar: exclam
Encoding: 33 33 67
Width: 359
Flags: HMW
LayerCount: 2
Fore
SplineSet
100 65 m 0
 100 109 136 145 180 145 c 0
 224 145 260 109 260 65 c 0
 260 21 224 -15 180 -15 c 0
 136 -15 100 21 100 65 c 0
258 649 m 0
 247 473 203 378 203 228 c 1
 155 228 l 1
 155 378 111 473 100 649 c 0
 100 656 100 662 100 668 c 0
 100 724 132 763 179 763 c 4
 226 763 259 724 259 668 c 0
 259 662 258 656 258 649 c 0
EndSplineSet
EndChar

StartChar: quotesingle
Encoding: 39 39 70
Width: 239
Flags: HMW
LayerCount: 2
Fore
SplineSet
188 679 m 24
 177 604 138 568 138 488 c 5
 100 488 l 5
 100 568 61 604 50 679 c 24
 49 686 49 691 49 697 c 0
 49 736 80 763 119 763 c 0
 158 763 189 736 189 697 c 0
 189 691 189 686 188 679 c 24
EndSplineSet
EndChar

StartChar: question
Encoding: 63 63 75
Width: 570
Flags: HMW
LayerCount: 2
Fore
SplineSet
227 369.01171875 m 5
 307 369.01171875 l 5
 307 229.01171875 l 5
 227 229.01171875 l 5
 227 369.01171875 l 5
45 591 m 1
 45 673 119 765 271 765 c 0
 452 765 530 680 530 550 c 1
 389 570 l 1
 389 644 360 713 271 713 c 0
 197 713 164 684 164 662 c 1
 45 591 l 1
164 662 m 1
 164 632 204 621 204 570 c 0
 204 528 172 500 127 500 c 0
 82 500 45 533 45 591 c 1
 164 662 l 1
227 369.01171875 m 5
 334.477539062 400.314453125 389 466.76171875 389 570 c 1
 530 550 l 1
 530 430 398 330 227 330 c 5
 227 369.01171875 l 5
EndSplineSet
Refer: 1 46 N 1 0 0 1 149 0 2
EndChar

StartChar: parenleft
Encoding: 40 40 76
Width: 465
Flags: HMW
LayerCount: 2
Fore
SplineSet
445 -110 m 5
 425 -170 l 1
 202 -120 55 62 55 325 c 0
 55 588 202 750 425 800 c 1
 445 740 l 1
 271 690 210 557 210 325 c 0
 210 93 271 -60 445 -110 c 5
EndSplineSet
EndChar

StartChar: at
Encoding: 64 64 79
Width: 1060
VWidth: 1155
Flags: HMW
LayerCount: 2
Fore
SplineSet
835 -64 m 1
 751 -162 632 -219 469 -219 c 0
 306 -219 45 -112 45 221 c 1
 190 231 l 1
 190 -71 361 -154 495 -154 c 0
 599 -154 696 -113 786 -15 c 1
 835 -64 l 1
822 520 m 1
 750 210 l 1
 620 210 l 1
 692 520 l 1
 822 520 l 1
673 359 m 0
 673 192.828125 604 70 484 70 c 4
 375 70 314 125.583984375 314 230 c 0
 314 380 409 529 568 529 c 4
 669 529 673 461 673 359 c 0
644 346 m 0
 644 387.927734375 650 468 584 468 c 0
 510 468 455 364 455 240 c 0
 455 173.072265625 460 132 514 132 c 0
 575 132 644 218 644 346 c 0
620 210 m 1
 750 210 l 1
 748 197 736 145 778 145 c 0
 879 145 937 271 937 425 c 1
 1010 421 l 1
 1010 261 912 70 741 70 c 0
 642 70 607 148 620 210 c 1
937 425 m 1
 937 602 786 732 602 732 c 0
 368 732 190 503 190 231 c 1
 45 221 l 1
 45 554 292 795 585 795 c 0
 858 795 1010 604 1010 421 c 1
 937 425 l 1
EndSplineSet
EndChar

StartChar: dollar
Encoding: 36 36 80
Width: 660
Flags: HMW
LayerCount: 2
Fore
SplineSet
320 835 m 1
 395 835 l 1
 335 -85 l 1
 260 -85 l 1
 320 835 l 1
140 130 m 5
 36 186 l 1
 36 244 81 262 110 262 c 0
 137 262 177 241 177 194 c 0
 177 158 140 153 140 130 c 5
485 635 m 1
 584 579 l 1
 584 521 539 503 510 503 c 0
 483 503 443 524 443 571 c 0
 443 607 485 612 485 635 c 1
36 186 m 1
 140 130 l 5
 140 101 186 51 330 51 c 0
 466 51 510 121 510 190 c 1
 620 215 l 1
 620 75 511 -10 330 -10 c 0
 134 -10 36 76 36 186 c 1
70 555 m 1
 180 585 l 1
 180 395 620 535 620 215 c 1
 510 190 l 1
 510 400 70 265 70 555 c 1
584 579 m 1
 485 635 l 1
 485 664 444 699 330 699 c 0
 224 699 180 654 180 585 c 1
 70 555 l 1
 70 695 199 760 320 760 c 0
 446 760 584 719 584 579 c 1
EndSplineSet
EndChar

StartChar: numbersign
Encoding: 35 35 81
Width: 660
Flags: HMW
LayerCount: 2
Fore
SplineSet
-10 290 m 5
 640 290 l 5
 640 225 l 1
 -10 225 l 1
 -10 290 l 5
20 540 m 1
 670 540 l 1
 670 475 l 1
 20 475 l 1
 20 540 l 1
450 805 m 1
 515 805 l 1
 415 -55 l 1
 350 -55 l 1
 450 805 l 1
230 805 m 1
 295 805 l 1
 195 -55 l 1
 130 -55 l 1
 230 805 l 1
EndSplineSet
EndChar

StartChar: slash
Encoding: 47 47 82
Width: 520
Flags: HMW
LayerCount: 2
Fore
SplineSet
396 780 m 1
 480 780 l 1
 129 -150 l 5
 40 -150 l 1
 396 780 l 1
EndSplineSet
EndChar

StartChar: percent
Encoding: 37 37 83
Width: 1000
Flags: HMW
LayerCount: 2
Fore
SplineSet
695 210 m 4
 695 108 701 45 765 45 c 4
 829 45 835 108 835 210 c 4
 835 312 829 375 765 375 c 4
 701 375 695 312 695 210 c 4
555 210 m 4
 555 353 642 435 765 435 c 4
 888 435 975 353 975 210 c 4
 975 67 868 -15 765 -15 c 4
 642 -15 555 67 555 210 c 4
681 750 m 5
 765 750 l 5
 324 0 l 5
 235 0 l 5
 681 750 l 5
165 540 m 4
 165 438 171 375 235 375 c 4
 299 375 305 438 305 540 c 4
 305 642 299 705 235 705 c 4
 171 705 165 642 165 540 c 4
25 540 m 4
 25 683 112 765 235 765 c 4
 358 765 445 683 445 540 c 4
 445 397 338 315 235 315 c 4
 112 315 25 397 25 540 c 4
EndSplineSet
EndChar

StartChar: hyphen
Encoding: 45 45 85
Width: 460
Flags: HMW
LayerCount: 2
Fore
SplineSet
60 425 m 5
 400 425 l 5
 400 350 l 1
 60 350 l 1
 60 425 l 5
EndSplineSet
EndChar

StartChar: plus
Encoding: 43 43 87
Width: 530
Flags: HMW
LayerCount: 2
Fore
SplineSet
233 110 m 1
 233 520 l 1
 297 520 l 5
 297 110 l 5
 233 110 l 1
60 348 m 1
 470 348 l 1
 470 283 l 1
 60 283 l 1
 60 348 l 1
EndSplineSet
EndChar

StartChar: less
Encoding: 60 60 89
Width: 560
Flags: HMW
LayerCount: 2
Fore
SplineSet
60 355 m 1
 60 440 l 1
 500 610 l 1
 500 525 l 1
 60 355 l 1
60 335 m 1
 60 420 l 5
 500 250 l 5
 500 165 l 1
 60 335 l 1
EndSplineSet
EndChar

StartChar: backslash
Encoding: 92 92 91
Width: 520
Flags: HMW
LayerCount: 2
Fore
SplineSet
124 780 m 1
 480 -150 l 1
 391 -150 l 5
 40 780 l 1
 124 780 l 1
EndSplineSet
EndChar

StartChar: bracketleft
Encoding: 91 91 92
Width: 345
Flags: HMW
LayerCount: 2
Fore
SplineSet
315 -150 m 1
 55 -150 l 1
 55 -75 l 5
 315 -75 l 5
 315 -150 l 1
315 705 m 1
 55 705 l 1
 55 780 l 1
 315 780 l 1
 315 705 l 1
185 780 m 1
 185 -150 l 1
 55 -150 l 1
 55 780 l 1
 185 780 l 1
EndSplineSet
EndChar

StartChar: braceleft
Encoding: 123 123 93
Width: 292
VWidth: 1155
Flags: HMW
LayerCount: 2
Fore
SplineSet
262 780 m 1
 262 713 l 1
 200 713 168 690 168 627 c 0
 168 551 202 531 202 431 c 0
 202 348 129 300 55 280 c 1
 55 350 l 1
 85 360 115 365 115 406 c 0
 115 469 35 504 35 641 c 0
 35 730 117 780 262 780 c 1
262 -150 m 1
 117 -150 35 -99 35 -10 c 0
 35 127 115 162 115 225 c 4
 115 266 85 270 55 280 c 1
 55 350 l 1
 129 330 202 283 202 200 c 0
 202 100 168 80 168 4 c 0
 168 -59 200 -83 262 -83 c 1
 262 -150 l 1
EndSplineSet
EndChar

StartChar: bar
Encoding: 124 124 96
Width: 300
VWidth: 1155
Flags: HMW
LayerCount: 2
Fore
SplineSet
105 780 m 5
 195 780 l 5
 195 -250 l 5
 105 -250 l 5
 105 780 l 5
EndSplineSet
EndChar

StartChar: cent
Encoding: 162 162 98
Width: 563
VWidth: 1155
Flags: HMW
LayerCount: 2
Fore
SplineSet
290.946289062 615 m 5
 365.946289062 615 l 5
 265.946289062 -85 l 5
 190.946289062 -85 l 5
 290.946289062 615 l 5
EndSplineSet
Refer: 40 99 N 1 0 0 1 0 0 2
EndChar

StartChar: sterling
Encoding: 163 163 99
Width: 590
VWidth: 1155
Flags: HMW
LayerCount: 2
Fore
SplineSet
570 157 m 5
 570 12 489 -35 400 -35 c 4
 303 -35 248 25 175 25 c 4
 134 25 94 10 84 -20 c 5
 50 -20 l 5
 70 54 137 127 220 127 c 4
 300 127 340 83 406 83 c 4
 459 83 513 105 513 157 c 5
 570 157 l 5
413 395 m 5
 413 320 l 5
 -37 320 l 5
 -37 395 l 5
 413 395 l 5
450 652 m 5
 568 606 l 5
 568 548 533 520 494 520 c 4
 457 520 418 541 418 588 c 4
 418 624 450 629 450 652 c 5
568 606 m 5
 450 652 l 5
 450 679 406 703 332 703 c 4
 213 703 197 634 197 560 c 5
 46 550 l 5
 46 690 171 765 332 765 c 4
 484 765 568 698 568 606 c 5
46 550 m 5
 197 560 l 5
 197 461 273 395 273 320 c 4
 273 140 81 165 64 -20 c 5
 20 -20 l 5
 1 119 147 197 147 261 c 4
 147 375 46 435 46 550 c 5
EndSplineSet
EndChar

StartChar: section
Encoding: 167 167 101
Width: 534
VWidth: 1155
Flags: HMW
LayerCount: 2
Fore
SplineSet
488 142 m 1
 370 116 l 1
 370 232 27 212 27 375 c 0
 27 427 71 474 125 510 c 1
 189 490 l 1
 165 468 153 437 153 407 c 0
 153 276 488 324 488 142 c 1
118 92 m 1
 9 138 l 1
 9 196 54 219 83 219 c 4
 120 219 150 193 150 156 c 0
 150 120 118 115 118 92 c 1
9 138 m 1
 118 92 l 1
 118 66 190 51 242 51 c 0
 305 51 370 69 370 116 c 1
 488 142 l 1
 488 38 348 -15 253 -15 c 0
 145 -15 9 22 9 138 c 1
27 608 m 1
 145 634 l 1
 145 518 488 538 488 375 c 0
 488 323 444 276 390 240 c 1
 326 260 l 1
 350 282 362 313 362 343 c 0
 362 474 27 426 27 608 c 1
347 658 m 1
 456 612 l 1
 456 554 421 536 392 536 c 0
 365 536 315 557 315 594 c 0
 315 630 347 635 347 658 c 1
456 612 m 1
 347 658 l 1
 347 684 295 699 243 699 c 0
 180 699 145 681 145 634 c 1
 27 608 l 1
 27 712 137 765 232 765 c 0
 340 765 456 728 456 612 c 1
EndSplineSet
EndChar

StartChar: asciitilde
Encoding: 126 126 104
Width: 688
VWidth: 1155
Flags: HMW
LayerCount: 2
Fore
SplineSet
243 437 m 4
 180 437 167 405 167 343 c 1
 90 343 l 1
 90 458 160 520 249 520 c 4
 369 520 359 416 435 416 c 4
 498 416 521 448 521 510 c 1
 598 510 l 1
 598 395 528 333 439 333 c 4
 302 333 326 437 243 437 c 4
EndSplineSet
EndChar

StartChar: copyright
Encoding: 169 169 105
Width: 870
Flags: HMW
LayerCount: 2
Fore
SplineSet
40 375 m 4
 40 588 218 760 435 760 c 4
 652 760 830 588 830 375 c 4
 830 162 652 -10 435 -10 c 4
 218 -10 40 162 40 375 c 4
100 375 m 4
 100 190 250 39 435 39 c 4
 620 39 770 190 770 375 c 4
 770 560 620 711 435 711 c 4
 250 711 100 560 100 375 c 4
EndSplineSet
Refer: 14 67 N 0.6 0 0 0.6 182 150 2
EndChar

StartChar: registered
Encoding: 174 174 106
Width: 870
Flags: HMW
LayerCount: 2
Fore
SplineSet
40 375 m 0
 40 588 218 760 435 760 c 0
 652 760 830 588 830 375 c 0
 830 162 652 -10 435 -10 c 0
 218 -10 40 162 40 375 c 0
100 375 m 0
 100 190 250 39 435 39 c 0
 620 39 770 190 770 375 c 0
 770 560 620 711 435 711 c 0
 250 711 100 560 100 375 c 0
EndSplineSet
Refer: 29 82 N 0.6 0 0 0.6 198 148 2
EndChar

StartChar: guillemotleft
Encoding: 171 171 108
Width: 695
Flags: HMW
LayerCount: 2
Fore
SplineSet
430.900390625 387.5 m 1
 665 190 l 5
 635 145 l 1
 305 375 l 1
 305 400 l 1
 635 630 l 1
 665 585 l 1
 430.900390625 387.5 l 1
150.900390625 387.5 m 1
 385 190 l 5
 355 145 l 1
 25 375 l 1
 25 400 l 1
 355 630 l 1
 385 585 l 1
 150.900390625 387.5 l 1
EndSplineSet
EndChar

StartChar: mu
Encoding: 181 181 111
Width: 705
VWidth: 1155
Flags: HMW
LayerCount: 2
Fore
SplineSet
256 -143 m 4
 289 -143 312 -167 312 -201 c 4
 312 -236 279 -260 241 -260 c 5
 202 -162 l 5
 222 -162 221 -143 256 -143 c 4
115 -122 m 5
 115 321 l 1
 165 321 l 1
 165 -119 l 5
 115 -122 l 5
115 -122 m 5
 165 -119 l 5
 165 -156 189 -162 202 -162 c 5
 241 -260 l 5
 179 -260 115 -211 115 -122 c 5
EndSplineSet
Refer: 58 117 N 1 0 0 1 0 0 2
EndChar

StartChar: asciicircum
Encoding: 94 94 113
Width: 545
Flags: HMW
LayerCount: 2
Fore
SplineSet
305 770 m 1
 305 723 l 5
 240 723 l 5
 240 770 l 1
 305 770 l 1
220 730 m 5
 305 770 l 1
 495 580 l 1
 450 560 l 1
 220 730 l 5
240 770 m 1
 325 730 l 5
 95 560 l 1
 50 580 l 1
 240 770 l 1
EndSplineSet
EndChar

StartChar: degree
Encoding: 176 176 115
Width: 320
Flags: HMW
LayerCount: 2
Fore
SplineSet
40 680 m 0
 40 746 94 800 160 800 c 0
 226 800 280 746 280 680 c 0
 280 614 226 560 160 560 c 0
 94 560 40 614 40 680 c 0
95 680 m 0
 95 643 123 615 160 615 c 4
 197 615 225 643 225 680 c 0
 225 717 197 745 160 745 c 4
 123 745 95 717 95 680 c 0
EndSplineSet
EndChar

StartChar: onequarter
Encoding: 188 188 119
Width: 1000
Flags: HMW
LayerCount: 2
Fore
SplineSet
701 750 m 1
 765 750 l 1
 304 0 l 1
 235 0 l 1
 701 750 l 1
EndSplineSet
Refer: 6 52 S 0.6 0 0 0.6 535 32 2
Refer: 3 49 N 0.6 0 0 0.6 107 456 2
EndChar

StartChar: onehalf
Encoding: 189 189 120
Width: 1000
Flags: HMW
LayerCount: 2
Fore
SplineSet
701 750 m 1
 765 750 l 1
 304 0 l 1
 235 0 l 1
 701 750 l 1
EndSplineSet
Refer: 4 50 S 0.6 0 0 0.6 576 17 2
Refer: 3 49 N 0.6 0 0 0.6 107 456 2
EndChar

StartChar: threequarters
Encoding: 190 190 121
Width: 1000
Flags: HMW
LayerCount: 2
Fore
SplineSet
701 750 m 1
 765 750 l 1
 304 0 l 1
 235 0 l 1
 701 750 l 1
EndSplineSet
Refer: 6 52 S 0.6 0 0 0.6 535 32 2
Refer: 5 51 N 0.6 0 0 0.6 65 457 2
EndChar

StartChar: grave
Encoding: 96 96 123
Width: 395
Flags: HMW
LayerCount: 2
Fore
SplineSet
190 700 m 6
 171.021484375 700.643554688 145 716 145 745 c 4
 145 774 172.598601168 796.101283133 200 788 c 6
 427 725 l 5
 425 695 l 5
 190 700 l 6
EndSplineSet
EndChar

StartChar: acute
Encoding: 180 180 124
Width: 395
Flags: HMW
LayerCount: 2
Fore
SplineSet
185 710 m 2
 -50 705 l 1
 -52 735 l 1
 175 798 l 2
 202.401367188 806.1015625 230 784 230 755 c 0
 230 726 203.978515625 710.643554688 185 710 c 2
EndSplineSet
EndChar

StartChar: cedilla
Encoding: 184 184 128
Width: 550
Flags: HMW
LayerCount: 2
Fore
SplineSet
157 -99.01171875 m 1
 267 40.98828125 l 1
 357 40.98828125 l 1
 247 -99.01171875 l 1
 157 -99.01171875 l 1
157 -99.01171875 m 1
 217 -50 l 5
 328 -50 410 -90 410 -140 c 1
 329 -150 l 1
 329 -116.76171875 282 -99.01171875 157 -99.01171875 c 1
181 -178 m 1
 290 -188 329 -174 329 -150 c 1
 410 -140 l 1
 410 -190 352 -250 181 -240 c 1
 181 -178 l 1
EndSplineSet
EndChar

StartChar: AE
Encoding: 198 198 526
Width: 1197
Flags: HMW
LayerCount: 2
Fore
SplineSet
290 295 m 1
 640 295 l 1
 640 220 l 1
 290 220 l 1
 290 295 l 1
0 75 m 1
 300 75 l 5
 300 0 l 5
 0 0 l 1
 0 75 l 1
596 750 m 1
 685 750 l 1
 169 0 l 1
 75 0 l 1
 596 750 l 1
EndSplineSet
Refer: 16 69 N 1 0 0 1 460 0 2
EndChar

StartChar: ae
Encoding: 230 230 529
Width: 875
VWidth: 1155
Flags: HMW
LayerCount: 2
Fore
SplineSet
346 250 m 1
 487 275 l 1
 487 151 507 54 616 54 c 0
 689 54 728 93 753 173 c 1
 824 173 l 1
 798 66 735 -15 604 -15 c 0
 433 -15 346 110 346 250 c 1
463 319 m 1
 757 319 l 1
 757 256 l 1
 463 256 l 1
 463 319 l 1
830 256 m 1
 690 256 l 1
 690 359 694 476 600 476 c 0
 511 476 487 374 487 270 c 1
 386 250 l 1
 386 410 430 535 611 535 c 0
 810 535 830 385 830 256 c 1
304 294 m 1
 304 246 l 1
 188 246 162 180 162 143 c 0
 162 86 205 61 245 61 c 0
 303 61 346 95 346 186 c 1
 405 174 l 5
 405 50 301 -15 200 -15 c 0
 91 -15 25 34 25 128 c 0
 25 222 112 294 304 294 c 1
476 352 m 1
 486 106 l 1
 346 128 l 1
 346 372 l 1
 476 352 l 1
45 383 m 1
 45 470 157 535 268 535 c 0
 388 535 456 473 456 352 c 1
 346 362 l 1
 346 429 333 474 253 474 c 0
 199 474 168 457 168 442 c 1
 45 383 l 1
304 294 m 1
 448 294 l 1
 448 246 l 1
 304 246 l 1
 304 294 l 1
199 379 m 0
 199 335 168 310 124 310 c 0
 78 310 45 339 45 383 c 1
 168 442 l 1
 168 429 199 427 199 379 c 0
EndSplineSet
EndChar

StartChar: perthousand
Encoding: 8240 8240 537
Width: 1470
Flags: HMW
LayerCount: 2
Fore
SplineSet
1165 210 m 4
 1165 108 1171 45 1235 45 c 4
 1299 45 1305 108 1305 210 c 4
 1305 312 1299 375 1235 375 c 4
 1171 375 1165 312 1165 210 c 4
1025 210 m 4
 1025 353 1112 435 1235 435 c 4
 1358 435 1445 353 1445 210 c 4
 1445 67 1338 -15 1235 -15 c 4
 1112 -15 1025 67 1025 210 c 4
695 210 m 4
 695 108 701 45 765 45 c 4
 829 45 835 108 835 210 c 4
 835 312 829 375 765 375 c 4
 701 375 695 312 695 210 c 4
555 210 m 4
 555 353 642 435 765 435 c 4
 888 435 975 353 975 210 c 4
 975 67 868 -15 765 -15 c 4
 642 -15 555 67 555 210 c 4
681 750 m 5
 765 750 l 5
 324 0 l 5
 235 0 l 5
 681 750 l 5
165 540 m 4
 165 438 171 375 235 375 c 4
 299 375 305 438 305 540 c 4
 305 642 299 705 235 705 c 4
 171 705 165 642 165 540 c 4
25 540 m 4
 25 683 112 765 235 765 c 4
 358 765 445 683 445 540 c 4
 445 397 338 315 235 315 c 4
 112 315 25 397 25 540 c 4
EndSplineSet
EndChar

StartChar: uni2031
Encoding: 8241 8241 538
Width: 1950
Flags: HMW
LayerCount: 2
Fore
SplineSet
1645 210 m 0
 1645 108 1651 45 1715 45 c 0
 1779 45 1785 108 1785 210 c 0
 1785 312 1779 375 1715 375 c 0
 1651 375 1645 312 1645 210 c 0
1505 210 m 0
 1505 353 1592 435 1715 435 c 0
 1838 435 1925 353 1925 210 c 0
 1925 67 1818 -15 1715 -15 c 0
 1592 -15 1505 67 1505 210 c 0
1995 210 m 1024
1165 210 m 0
 1165 108 1171 45 1235 45 c 0
 1299 45 1305 108 1305 210 c 0
 1305 312 1299 375 1235 375 c 0
 1171 375 1165 312 1165 210 c 0
1025 210 m 0
 1025 353 1112 435 1235 435 c 0
 1358 435 1445 353 1445 210 c 0
 1445 67 1338 -15 1235 -15 c 0
 1112 -15 1025 67 1025 210 c 0
695 210 m 0
 695 108 701 45 765 45 c 0
 829 45 835 108 835 210 c 0
 835 312 829 375 765 375 c 0
 701 375 695 312 695 210 c 0
555 210 m 0
 555 353 642 435 765 435 c 0
 888 435 975 353 975 210 c 0
 975 67 868 -15 765 -15 c 0
 642 -15 555 67 555 210 c 0
681 750 m 1
 765 750 l 1
 324 0 l 1
 235 0 l 1
 681 750 l 1
165 540 m 0
 165 438 171 375 235 375 c 0
 299 375 305 438 305 540 c 0
 305 642 299 705 235 705 c 0
 171 705 165 642 165 540 c 0
25 540 m 0
 25 683 112 765 235 765 c 0
 358 765 445 683 445 540 c 0
 445 397 338 315 235 315 c 0
 112 315 25 397 25 540 c 0
EndSplineSet
EndChar

StartChar: uniFB00
Encoding: 64256 64256 542
Width: 765
VWidth: 1155
Flags: HMW
LayerCount: 2
Back
SplineSet
835 699 m 5
 739 738 l 5
 739 750 721 765 679 765 c 4
 589 765 560 697 560 570 c 5
 470 592 l 5
 470 723 537 800 667 800 c 4
 768 800 835 756 835 699 c 5
718 681 m 4
 718 711 739 718 739 738 c 5
 835 699 l 5
 835 656 811 633 776 633 c 4
 741 633 718 653 718 681 c 4
380 55 m 5
 470 55 l 5
 470 0 l 5
 380 0 l 5
 380 55 l 5
560 55 m 5
 680 55 l 5
 680 0 l 5
 560 0 l 5
 560 55 l 5
380 520 m 5
 700 520 l 5
 700 465 l 5
 380 465 l 5
 380 520 l 5
470 592 m 5
 560 570 l 5
 560 0 l 5
 470 0 l 5
 470 592 l 5
505 659 m 5
 409 698 l 5
 409 710 381 725 339 725 c 4
 249 725 210 657 210 530 c 5
 120 552 l 5
 120 683 207 770 337 770 c 4
 438 770 505 716 505 659 c 5
388 641 m 4
 388 671 409 678 409 698 c 5
 505 659 l 5
 505 616 481 593 446 593 c 4
 411 593 388 613 388 641 c 4
30 55 m 5
 120 55 l 5
 120 0 l 5
 30 0 l 5
 30 55 l 5
210 55 m 5
 330 55 l 5
 330 0 l 5
 210 0 l 5
 210 55 l 5
30 520 m 5
 380 520 l 5
 380 465 l 5
 30 465 l 5
 30 520 l 5
120 552 m 5
 210 530 l 5
 210 0 l 5
 120 0 l 5
 120 552 l 5
EndSplineSet
Fore
SplineSet
880 694 m 5
 751 738 l 5
 751 750 726 760 684 760 c 4
 624 760 585 697 585 570 c 5
 455 592 l 5
 455 723 542 815 682 815 c 4
 803 815 880 761 880 694 c 5
723 676 m 4
 723 716 751 723 751 738 c 5
 880 694 l 5
 880 641 843 608 798 608 c 4
 753 608 723 638 723 676 c 4
385 65 m 5
 455 65 l 5
 455 0 l 5
 385 0 l 5
 385 65 l 5
585 65 m 5
 705 65 l 5
 705 0 l 5
 585 0 l 5
 585 65 l 5
455 592 m 5
 585 570 l 5
 585 0 l 5
 455 0 l 5
 455 592 l 5
540 654 m 5
 411 698 l 5
 411 710 386 720 344 720 c 4
 284 720 245 657 245 530 c 5
 115 552 l 5
 115 683 192 775 342 775 c 4
 473 775 540 721 540 654 c 5
383 636 m 4
 383 676 411 683 411 698 c 5
 540 654 l 5
 540 601 503 568 458 568 c 4
 413 568 383 598 383 636 c 4
25 65 m 5
 115 65 l 5
 115 0 l 5
 25 0 l 5
 25 65 l 5
245 65 m 5
 345 65 l 5
 345 0 l 5
 245 0 l 5
 245 65 l 5
25 520 m 5
 715 520 l 5
 715 455 l 5
 25 455 l 5
 25 520 l 5
115 552 m 5
 245 530 l 5
 245 0 l 5
 115 0 l 5
 115 552 l 5
EndSplineSet
LCarets2: 1 0
Ligature2: "Not your mama's contextual ligatures" f f
EndChar

StartChar: uniFB01
Encoding: 64257 64257 543
Width: 680
VWidth: 1155
Flags: HMW
LayerCount: 2
Back
SplineSet
360 55 m 5
 450 55 l 5
 450 0 l 5
 360 0 l 5
 360 55 l 5
540 55 m 5
 630 55 l 5
 630 0 l 5
 540 0 l 5
 540 55 l 5
360 520 m 5
 450 520 l 5
 450 465 l 5
 360 465 l 5
 360 520 l 5
450 520 m 5
 540 520 l 5
 540 0 l 5
 450 0 l 5
 450 520 l 5
525 679 m 5
 429 718 l 5
 429 730 411 745 349 745 c 4
 249 745 210 687 210 550 c 5
 120 572 l 5
 120 703 187 790 337 790 c 4
 458 790 525 736 525 679 c 5
408 661 m 4
 408 691 429 698 429 718 c 5
 525 679 l 5
 525 636 501 613 466 613 c 4
 431 613 408 633 408 661 c 4
30 55 m 5
 120 55 l 5
 120 0 l 5
 30 0 l 5
 30 55 l 5
210 55 m 5
 330 55 l 5
 330 0 l 5
 210 0 l 5
 210 55 l 5
30 520 m 5
 360 520 l 5
 360 465 l 5
 30 465 l 5
 30 520 l 5
120 572 m 5
 210 550 l 5
 210 0 l 5
 120 0 l 5
 120 572 l 5
EndSplineSet
Fore
SplineSet
560 674 m 5
 429 716 l 5
 429 728 396 740 354 740 c 4
 274 740 245 677 245 550 c 5
 115 572 l 5
 115 703 192 795 352 795 c 4
 483 795 560 741 560 674 c 5
403 656 m 4
 403 696 429 701 429 716 c 5
 560 674 l 5
 560 621 523 588 478 588 c 4
 433 588 403 618 403 656 c 4
25 65 m 5
 115 65 l 5
 115 0 l 5
 25 0 l 5
 25 65 l 5
245 65 m 5
 335 65 l 5
 335 0 l 5
 245 0 l 5
 245 65 l 5
25 520 m 5
 455 520 l 5
 455 455 l 5
 25 455 l 5
 25 520 l 5
115 572 m 5
 245 550 l 5
 245 0 l 5
 115 0 l 5
 115 572 l 5
380 65 m 1
 450 65 l 5
 450 0 l 5
 380 0 l 1
 380 65 l 1
580 65 m 5
 670 65 l 1
 670 0 l 1
 580 0 l 5
 580 65 l 5
450 520 m 1
 580 520 l 1
 580 0 l 1
 450 0 l 1
 450 520 l 1
EndSplineSet
LCarets2: 1 0
Ligature2: "Not your mama's contextual ligatures" f i
EndChar

StartChar: uniFB02
Encoding: 64258 64258 544
Width: 710
VWidth: 1155
Flags: HMW
LayerCount: 2
Back
SplineSet
395 55 m 5
 485 55 l 5
 485 0 l 5
 395 0 l 5
 395 55 l 5
575 55 m 5
 665 55 l 5
 665 0 l 5
 575 0 l 5
 575 55 l 5
485 730 m 5
 575 800 l 5
 575 0 l 5
 485 0 l 5
 485 730 l 5
525 679 m 5
 429 718 l 5
 429 730 411 745 349 745 c 4
 239 745 210 677 210 550 c 5
 120 572 l 5
 120 703 197 790 347 790 c 4
 468 790 525 736 525 679 c 5
408 661 m 4
 408 691 429 698 429 718 c 5
 525 679 l 5
 525 636 501 613 466 613 c 4
 431 613 408 633 408 661 c 4
30 55 m 5
 120 55 l 5
 120 0 l 5
 30 0 l 5
 30 55 l 5
210 55 m 5
 330 55 l 5
 330 0 l 5
 210 0 l 5
 210 55 l 5
30 520 m 5
 350 520 l 5
 350 465 l 5
 30 465 l 5
 30 520 l 5
120 572 m 5
 210 550 l 5
 210 0 l 5
 120 0 l 5
 120 572 l 5
EndSplineSet
Fore
SplineSet
550 674 m 5
 421 718 l 5
 421 730 386 740 344 740 c 4
 274 740 245 677 245 550 c 5
 115 572 l 5
 115 703 192 795 342 795 c 4
 473 795 550 741 550 674 c 5
393 656 m 4
 393 696 421 703 421 718 c 5
 550 674 l 5
 550 621 513 588 468 588 c 4
 423 588 393 618 393 656 c 4
25 65 m 1
 115 65 l 1
 115 0 l 1
 25 0 l 1
 25 65 l 1
245 65 m 1
 365 65 l 1
 365 0 l 1
 245 0 l 1
 245 65 l 1
25 520 m 1
 385 520 l 1
 385 455 l 1
 25 455 l 1
 25 520 l 1
115 572 m 1
 245 550 l 1
 245 0 l 1
 115 0 l 1
 115 572 l 1
390 65 m 1
 480 65 l 1
 480 0 l 1
 390 0 l 1
 390 65 l 1
610 65 m 1
 700 65 l 1
 700 0 l 1
 610 0 l 1
 610 65 l 1
480 730 m 1
 610 800 l 1
 610 0 l 1
 480 0 l 1
 480 730 l 1
EndSplineSet
LCarets2: 1 0
Ligature2: "Not your mama's contextual ligatures" f l
EndChar

StartChar: uniFB03
Encoding: 64259 64259 545
Width: 1035
VWidth: 1155
Flags: HMW
LayerCount: 2
Back
SplineSet
120 572 m 5
 210 550 l 5
 210 0 l 5
 120 0 l 5
 120 572 l 5
505 659 m 5
 409 698 l 5
 409 710 381 725 339 725 c 4
 249 725 210 657 210 530 c 5
 120 552 l 5
 120 683 207 770 337 770 c 4
 438 770 505 716 505 659 c 5
388 641 m 4
 388 671 409 678 409 698 c 5
 505 659 l 5
 505 616 481 593 446 593 c 4
 411 593 388 613 388 641 c 4
30 55 m 5
 120 55 l 5
 120 0 l 5
 30 0 l 5
 30 55 l 5
210 55 m 5
 330 55 l 5
 330 0 l 5
 210 0 l 5
 210 55 l 5
30 520 m 5
 380 520 l 5
 380 465 l 5
 30 465 l 5
 30 520 l 5
710 55 m 5
 800 55 l 5
 800 0 l 5
 710 0 l 5
 710 55 l 5
890 55 m 5
 980 55 l 5
 980 0 l 5
 890 0 l 5
 890 55 l 5
710 520 m 5
 800 520 l 5
 800 465 l 5
 710 465 l 5
 710 520 l 5
800 520 m 5
 890 520 l 5
 890 0 l 5
 800 0 l 5
 800 520 l 5
875 679 m 5
 779 718 l 5
 779 730 761 765 699 765 c 4
 589 765 560 677 560 550 c 5
 470 572 l 5
 470 703 547 800 697 800 c 4
 818 800 875 736 875 679 c 5
758 661 m 4
 758 691 779 698 779 718 c 5
 875 679 l 5
 875 636 851 613 816 613 c 4
 781 613 758 633 758 661 c 4
380 55 m 5
 470 55 l 5
 470 0 l 5
 380 0 l 5
 380 55 l 5
560 55 m 5
 680 55 l 5
 680 0 l 5
 560 0 l 5
 560 55 l 5
380 520 m 5
 710 520 l 5
 710 465 l 5
 380 465 l 5
 380 520 l 5
470 572 m 5
 560 550 l 5
 560 0 l 5
 470 0 l 5
 470 572 l 5
EndSplineSet
Fore
SplineSet
910 674 m 5
 779 716 l 5
 779 728 746 740 704 740 c 4
 624 740 595 677 595 550 c 5
 465 572 l 5
 465 703 542 795 702 795 c 4
 833 795 910 741 910 674 c 5
753 656 m 4
 753 696 779 701 779 716 c 5
 910 674 l 5
 910 621 873 588 828 588 c 4
 783 588 753 618 753 656 c 4
375 65 m 5
 465 65 l 5
 465 0 l 5
 375 0 l 5
 375 65 l 5
595 65 m 5
 685 65 l 5
 685 0 l 5
 595 0 l 5
 595 65 l 5
25 520 m 5
 805 520 l 5
 805 455 l 5
 25 455 l 5
 25 520 l 5
465 572 m 5
 595 550 l 5
 595 0 l 5
 465 0 l 5
 465 572 l 5
540 654 m 5
 411 698 l 5
 411 710 386 720 344 720 c 4
 284 720 245 657 245 530 c 5
 115 552 l 5
 115 683 192 775 342 775 c 4
 473 775 540 721 540 654 c 5
383 636 m 4
 383 676 411 683 411 698 c 5
 540 654 l 5
 540 601 503 568 458 568 c 4
 413 568 383 598 383 636 c 4
25 65 m 5
 115 65 l 5
 115 0 l 5
 25 0 l 5
 25 65 l 5
245 65 m 5
 345 65 l 5
 345 0 l 5
 245 0 l 5
 245 65 l 5
115 552 m 5
 245 530 l 5
 245 0 l 5
 115 0 l 5
 115 552 l 5
715 65 m 5
 805 65 l 5
 805 0 l 5
 715 0 l 5
 715 65 l 5
935 65 m 5
 1025 65 l 5
 1025 0 l 5
 935 0 l 5
 935 65 l 5
805 520 m 5
 935 520 l 5
 935 0 l 5
 805 0 l 5
 805 520 l 5
EndSplineSet
LCarets2: 2 0 0
Ligature2: "Not your mama's contextual ligatures" f f i
EndChar

StartChar: uniFB04
Encoding: 64260 64260 546
Width: 1035
VWidth: 1155
Flags: HMW
LayerCount: 2
Back
SplineSet
710 55 m 5
 800 55 l 5
 800 0 l 5
 710 0 l 5
 710 55 l 5
890 55 m 5
 980 55 l 5
 980 0 l 5
 890 0 l 5
 890 55 l 5
800 730 m 5
 890 800 l 5
 890 0 l 5
 800 0 l 5
 800 730 l 5
120 572 m 5
 210 550 l 5
 210 0 l 5
 120 0 l 5
 120 572 l 5
505 659 m 5
 409 698 l 5
 409 710 381 725 339 725 c 4
 249 725 210 657 210 530 c 5
 120 552 l 5
 120 683 207 770 337 770 c 4
 438 770 505 716 505 659 c 5
388 641 m 4
 388 671 409 678 409 698 c 5
 505 659 l 5
 505 616 481 593 446 593 c 4
 411 593 388 613 388 641 c 4
30 55 m 5
 120 55 l 5
 120 0 l 5
 30 0 l 5
 30 55 l 5
210 55 m 5
 330 55 l 5
 330 0 l 5
 210 0 l 5
 210 55 l 5
30 520 m 5
 380 520 l 5
 380 465 l 5
 30 465 l 5
 30 520 l 5
875 679 m 5
 779 718 l 5
 779 730 761 765 699 765 c 4
 589 765 560 677 560 550 c 5
 470 572 l 5
 470 703 547 800 697 800 c 4
 818 800 875 736 875 679 c 5
758 661 m 4
 758 691 779 698 779 718 c 5
 875 679 l 5
 875 636 851 613 816 613 c 4
 781 613 758 633 758 661 c 4
380 55 m 5
 470 55 l 5
 470 0 l 5
 380 0 l 5
 380 55 l 5
560 55 m 5
 680 55 l 5
 680 0 l 5
 560 0 l 5
 560 55 l 5
380 520 m 5
 710 520 l 5
 710 465 l 5
 380 465 l 5
 380 520 l 5
470 572 m 5
 560 550 l 5
 560 0 l 5
 470 0 l 5
 470 572 l 5
EndSplineSet
Fore
SplineSet
900 674 m 5
 771 718 l 5
 771 730 736 740 694 740 c 4
 624 740 595 677 595 550 c 5
 465 572 l 5
 465 703 542 795 692 795 c 4
 823 795 900 741 900 674 c 5
743 656 m 4
 743 696 771 703 771 718 c 5
 900 674 l 5
 900 621 863 588 818 588 c 4
 773 588 743 618 743 656 c 4
375 65 m 1
 465 65 l 1
 465 0 l 1
 375 0 l 1
 375 65 l 1
595 65 m 1
 685 65 l 1
 685 0 l 1
 595 0 l 1
 595 65 l 1
25 520 m 1
 715 520 l 1
 715 455 l 1
 25 455 l 1
 25 520 l 1
465 572 m 1
 595 550 l 1
 595 0 l 1
 465 0 l 1
 465 572 l 1
540 654 m 1
 411 698 l 1
 411 710 386 720 344 720 c 0
 284 720 245 657 245 530 c 1
 115 552 l 1
 115 683 192 775 342 775 c 0
 473 775 540 721 540 654 c 1
383 636 m 0
 383 676 411 683 411 698 c 1
 540 654 l 1
 540 601 503 568 458 568 c 0
 413 568 383 598 383 636 c 0
25 65 m 1
 115 65 l 1
 115 0 l 1
 25 0 l 1
 25 65 l 1
245 65 m 1
 345 65 l 1
 345 0 l 1
 245 0 l 1
 245 65 l 1
115 552 m 1
 245 530 l 1
 245 0 l 1
 115 0 l 1
 115 552 l 1
715 65 m 1
 805 65 l 1
 805 0 l 1
 715 0 l 1
 715 65 l 1
935 65 m 1
 1025 65 l 1
 1025 0 l 1
 935 0 l 1
 935 65 l 1
805 730 m 1
 935 800 l 1
 935 0 l 1
 805 0 l 1
 805 730 l 1
EndSplineSet
LCarets2: 2 0 0
Ligature2: "Not your mama's contextual ligatures" f f l
EndChar

StartChar: uniFFFD
Encoding: 65533 65533 547
Width: 815
Flags: HMW
LayerCount: 2
Back
SplineSet
455 415 m 1
 521 415 585 456 585 555 c 0
 585 654 521 675 455 675 c 1
 455 750 l 1
 656 750 725 665 725 555 c 0
 725 445 666 364 455 364 c 1
 455 415 l 1
285 750 m 1
 455 750 l 1
 455 675 l 1
 285 675 l 1
 285 750 l 1
285 415 m 1
 475 415 l 1
 475 335 l 1
 285 335 l 1
 285 415 l 1
40 75 m 1
 150 75 l 1
 150 0 l 1
 40 0 l 1
 40 75 l 1
40 750 m 1
 150 750 l 1
 150 675 l 1
 40 675 l 1
 40 750 l 1
150 750 m 1
 285 750 l 1
 285 0 l 1
 150 0 l 1
 150 750 l 1
285 75 m 1
 395 75 l 1
 395 0 l 1
 285 0 l 1
 285 75 l 1
840 84 m 1
 818 38 761 -10 695 -10 c 0
 432.03125 -10 661.256835938 335 405 335 c 1
 465 381 l 1
 788.294921875 381 636.228515625 84 729 84 c 0
 750 84 776 106 798 132 c 1
 840 84 l 1
EndSplineSet
Fore
SplineSet
455 415 m 5
 521 415 585 451 585 560 c 4
 585 649 521 675 455 675 c 5
 455 750 l 1
 646 750 725 670 725 560 c 0
 725 450 666 364 455 364 c 5
 455 415 l 5
285 750 m 1
 455 750 l 1
 455 675 l 1
 285 675 l 1
 285 750 l 1
285 415 m 1
 475 415 l 1
 475 335 l 1
 285 335 l 1
 285 415 l 1
40 75 m 1
 150 75 l 1
 150 0 l 1
 40 0 l 1
 40 75 l 1
40 750 m 1
 150 750 l 1
 150 675 l 1
 40 675 l 1
 40 750 l 1
150 750 m 1
 285 750 l 1
 285 0 l 1
 150 0 l 1
 150 750 l 1
285 75 m 1
 395 75 l 1
 395 0 l 1
 285 0 l 1
 285 75 l 1
795 0 m 25
 700 0 l 2
 467.03125 0 641.256835938 335 405 335 c 1
 465 381 l 1
 788.294921875 381 633.228515625 75 746 75 c 2
 795 75 l 1
 795 0 l 25
EndSplineSet
EndChar
